<svg width="76" height="76" viewBox="0 0 76 76" fill="none" xmlns="http://www.w3.org/2000/svg">
<path fill-rule="evenodd" clip-rule="evenodd" d="M7.95422 0.409912C4.08823 0.409912 0.954224 3.54392 0.954224 7.40991V68.4099C0.954224 72.2759 4.08823 75.4099 7.95422 75.4099H68.9542C72.8202 75.4099 75.9542 72.2759 75.9542 68.4099V7.40991C75.9542 3.54392 72.8202 0.409912 68.9542 0.409912H7.95422ZM47.0343 15.4166C51.3217 16.1415 55.4216 17.4165 59.2465 19.1414C59.2798 19.1547 59.3073 19.1796 59.324 19.2114C66.1013 29.0162 69.4462 40.0808 68.1962 52.8155C68.1932 52.8424 68.1846 52.8683 68.1708 52.8916C68.157 52.9149 68.1384 52.935 68.1162 52.9505C63.5703 56.2623 58.4974 58.7819 53.1116 60.4027C53.0737 60.4141 53.0331 60.4135 52.9956 60.401C52.958 60.3884 52.9252 60.3646 52.9016 60.3328C51.7692 58.7803 50.7392 57.1453 49.8392 55.4279C49.827 55.4042 49.8199 55.3782 49.8185 55.3516C49.8171 55.3249 49.8214 55.2983 49.8311 55.2734C49.8408 55.2486 49.8556 55.2261 49.8747 55.2075C49.8938 55.1888 49.9167 55.1745 49.9417 55.1654C51.5742 54.5604 53.1291 53.8329 54.6241 52.973C54.6507 52.9571 54.673 52.9349 54.689 52.9084C54.705 52.8818 54.7141 52.8517 54.7156 52.8208C54.7171 52.7898 54.7109 52.7589 54.6975 52.731C54.6842 52.703 54.6641 52.6788 54.6391 52.6605C54.3216 52.428 54.0091 52.1855 53.7091 51.9405C53.6816 51.9186 53.6485 51.9049 53.6136 51.9009C53.5787 51.8969 53.5433 51.9029 53.5116 51.918C43.8094 56.3279 33.1772 56.3279 23.36 51.918C23.3284 51.9037 23.2934 51.8985 23.259 51.9029C23.2245 51.9073 23.192 51.9212 23.165 51.943C22.865 52.1855 22.55 52.428 22.235 52.6605C22.2103 52.6792 22.1905 52.7037 22.1776 52.7319C22.1646 52.7602 22.1589 52.7911 22.1609 52.8221C22.1628 52.8531 22.1725 52.8831 22.1889 52.9094C22.2054 52.9357 22.2281 52.9576 22.255 52.973C23.7552 53.8258 25.32 54.5597 26.9349 55.1679C26.9599 55.1767 26.9827 55.1908 27.0018 55.2092C27.0208 55.2276 27.0357 55.2499 27.0455 55.2745C27.0552 55.2992 27.0595 55.3256 27.0581 55.3521C27.0567 55.3785 27.0496 55.4044 27.0374 55.4279C26.1547 57.1464 25.1294 58.788 23.9725 60.3353C23.9481 60.3659 23.915 60.3886 23.8775 60.4002C23.84 60.4118 23.8 60.4118 23.7625 60.4002C18.386 58.7748 13.3213 56.2564 8.78042 52.9505C8.75885 52.934 8.74085 52.9133 8.72753 52.8897C8.71421 52.8661 8.70583 52.8399 8.70292 52.813C7.65545 41.7983 9.78789 30.6436 17.5677 19.2064C17.5868 19.1763 17.6147 19.1528 17.6477 19.1389C21.475 17.4115 25.5749 16.1365 29.8598 15.4116C29.8985 15.4054 29.9381 15.4112 29.9734 15.4282C30.0087 15.4452 30.038 15.4725 30.0573 15.5066C30.6282 16.5021 31.1431 17.5286 31.5998 18.5815C36.1469 17.9021 40.7697 17.9021 45.3169 18.5815C45.7268 17.6315 46.3118 16.429 46.8368 15.5066C46.8563 15.4729 46.8858 15.4462 46.9212 15.4301C46.9566 15.4139 46.9961 15.4092 47.0343 15.4166ZM23.1125 40.1558C23.1125 43.4332 25.5499 46.1057 28.5048 46.1057C31.5073 46.1057 33.8972 43.4357 33.8972 40.1558C33.9447 36.8984 31.5298 34.206 28.5048 34.206C25.5024 34.206 23.1125 36.8759 23.1125 40.1558ZM43.0494 40.1558C43.0494 43.4332 45.4844 46.1057 48.4418 46.1057C51.4692 46.1057 53.8341 43.4357 53.8341 40.1558C53.8816 36.8984 51.4667 34.206 48.4418 34.206C45.4369 34.206 43.0494 36.8759 43.0494 40.1558Z" fill="#073B4C"/>
</svg>
