<svg width="76" height="76" viewBox="0 0 76 76" fill="none" xmlns="http://www.w3.org/2000/svg">
<path fill-rule="evenodd" clip-rule="evenodd" d="M7.97713 0.409912C4.11113 0.409912 0.977127 3.54392 0.977127 7.40991V68.4099C0.977127 72.2759 4.11113 75.4099 7.97712 75.4099H68.9771C72.8431 75.4099 75.9771 72.2759 75.9771 68.4099V7.40991C75.9771 3.54392 72.8431 0.409912 68.9771 0.409912H7.97713ZM8.47713 39.3901C8.47713 22.8151 21.9021 9.39014 38.4771 9.39014C55.0521 9.39014 68.4771 22.8151 68.4771 39.3901C68.4753 45.6758 66.5025 51.8028 62.8363 56.9086C59.1701 62.0143 53.9951 65.8419 48.0396 67.8526C46.5396 68.1526 45.9771 67.2151 45.9771 66.4276C45.9771 66.0891 45.9813 65.5032 45.9869 64.7232C45.998 63.1704 46.0146 60.8485 46.0146 58.1776C46.0146 55.3651 45.0771 53.5651 43.9896 52.6276C50.6646 51.8776 57.6771 49.3276 57.6771 37.8151C57.6771 34.5151 56.5146 31.8526 54.6021 29.7526C54.9021 29.0026 55.9521 25.9276 54.3021 21.8026C54.3021 21.8026 51.7896 20.9776 46.0521 24.8776C43.6521 24.2026 41.1021 23.8651 38.5521 23.8651C36.0021 23.8651 33.4521 24.2026 31.0521 24.8776C25.3146 21.0151 22.8021 21.8026 22.8021 21.8026C21.1521 25.9276 22.2021 29.0026 22.5021 29.7526C20.5896 31.8526 19.4271 34.5526 19.4271 37.8151C19.4271 49.2901 26.4021 51.8776 33.0771 52.6276C32.2146 53.3776 31.4271 54.6901 31.1646 56.6401C29.4396 57.4276 25.1271 58.7026 22.4271 54.1651C21.8646 53.2651 20.1771 51.0526 17.8146 51.0901C15.3021 51.1276 16.8021 52.5151 17.8521 53.0776C19.1271 53.7901 20.5896 56.4526 20.9271 57.3151C21.5271 59.0026 23.4771 62.2276 31.0146 60.8401C31.0146 62.4796 31.0306 64.0552 31.0417 65.1502C31.0476 65.7333 31.0521 66.1801 31.0521 66.4276C31.0521 67.2151 30.4896 68.1151 28.9896 67.8526C17.0646 63.8776 8.47713 52.6651 8.47713 39.3901Z" fill="#073B4C"/>
</svg>
