<svg width="76" height="76" viewBox="0 0 76 76" fill="none" xmlns="http://www.w3.org/2000/svg">
<path fill-rule="evenodd" clip-rule="evenodd" d="M7.90851 0.409912C4.04252 0.409912 0.908508 3.54392 0.908508 7.40991V68.4099C0.908508 72.2759 4.04251 75.4099 7.90851 75.4099H68.9085C72.7745 75.4099 75.9085 72.2759 75.9085 68.4099V7.40991C75.9085 3.54392 72.7745 0.409912 68.9085 0.409912H7.90851ZM68.4085 52.9099V26.1837L39.361 43.2762C39.0724 43.4464 38.7435 43.5361 38.4085 43.5361C38.0735 43.5361 37.7446 43.4464 37.456 43.2762L8.40851 26.1837V52.9099C8.40851 55.3963 9.39623 57.7809 11.1544 59.539C12.9125 61.2972 15.2971 62.2849 17.7835 62.2849H59.0335C61.5199 62.2849 63.9045 61.2972 65.6626 59.539C67.4208 57.7809 68.4085 55.3963 68.4085 52.9099ZM65.2855 15.9227C63.5663 14.3847 61.3403 13.5345 59.0335 13.5349H17.7835C15.4767 13.5345 13.2508 14.3847 11.5315 15.9227C9.81222 17.4607 8.72035 19.5786 8.46476 21.8712L38.4085 39.4849L68.3523 21.8712C68.0967 19.5786 67.0048 17.4607 65.2855 15.9227Z" fill="#073B4C"/>
</svg>
