<svg width="41" height="41" viewBox="0 0 41 41" fill="none" xmlns="http://www.w3.org/2000/svg">
<g clip-path="url(#clip0_301_4893)">
<path d="M20.3374 0.234146C10.1807 0.234146 10.8141 4.66081 10.8141 4.66081L10.8257 9.24748H20.5157V10.6241H6.98074C6.98074 10.6241 0.480743 9.88248 0.480743 20.1825C0.480743 30.4825 6.15241 30.1158 6.15241 30.1158H9.53574V25.3375C9.53574 25.3375 9.35408 19.6375 15.1191 19.6375H24.7291C24.7291 19.6375 30.1291 19.7241 30.1291 14.3908V5.57081C30.1291 5.57081 30.9474 0.234146 20.3357 0.234146H20.3374ZM14.9941 3.31748C15.9574 3.31748 16.7374 4.10081 16.7374 5.07081C16.7374 6.03915 15.9574 6.82248 14.9941 6.82248C14.0291 6.82248 13.2507 6.03915 13.2507 5.07081C13.2507 4.10081 14.0291 3.31748 14.9941 3.31748Z" fill="#A3D9FF"/>
<path d="M20.6257 40.2341C30.7791 40.2341 30.1457 35.8075 30.1457 35.8075L30.1341 31.2208H20.4441V29.8441H33.9824C33.9824 29.8441 40.4824 30.5858 40.4824 20.2858C40.4824 9.98581 34.8091 10.3525 34.8091 10.3525H31.4257V15.1308C31.4257 15.1308 31.6074 20.8308 25.8424 20.8308H16.2341C16.2341 20.8308 10.8341 20.7441 10.8341 26.0775V34.8975C10.8341 34.8975 10.0141 40.2341 20.6257 40.2341ZM25.9691 37.1508C25.0041 37.1508 24.2257 36.3675 24.2257 35.3975C24.2257 34.4291 25.0041 33.6458 25.9691 33.6458C26.9324 33.6458 27.7124 34.4291 27.7124 35.3975C27.7124 36.3675 26.9324 37.1508 25.9691 37.1508Z" fill="#A3D9FF"/>
</g>
<defs>
<clipPath id="clip0_301_4893">
<rect width="40" height="40" fill="white" transform="translate(0.480743 0.234146)"/>
</clipPath>
</defs>
</svg>
