<svg width="41" height="41" viewBox="0 0 41 41" fill="none" xmlns="http://www.w3.org/2000/svg">
<g clip-path="url(#clip0_301_4891)">
<path d="M39.7336 19.7496L38.0723 18.7208C38.0621 18.56 38.0471 18.3995 38.0273 18.2396L39.4536 16.9108C39.5236 16.8436 39.5756 16.7597 39.6047 16.6671C39.6338 16.5745 39.6392 16.476 39.6203 16.3807C39.6013 16.2855 39.5587 16.1965 39.4964 16.1221C39.4341 16.0476 39.354 15.99 39.2636 15.9546L37.4398 15.2758C37.3963 15.1165 37.3492 14.9581 37.2986 14.8008L38.4298 13.2258C38.488 13.1473 38.525 13.055 38.537 12.958C38.5491 12.8609 38.5358 12.7624 38.4986 12.672C38.4614 12.5816 38.4014 12.5023 38.3245 12.4419C38.2477 12.3815 38.1565 12.3419 38.0598 12.3271L36.1386 12.0133C36.0673 11.8696 35.9886 11.7271 35.9123 11.5833L36.7186 9.81335C36.7597 9.72505 36.7771 9.62759 36.7692 9.53053C36.7613 9.43346 36.7284 9.34011 36.6736 9.2596C36.6189 9.17921 36.545 9.11385 36.4585 9.06951C36.372 9.02517 36.2757 9.00328 36.1786 9.00585L34.2248 9.0771C34.1265 8.94786 34.0244 8.82156 33.9186 8.69835L34.3686 6.80335C34.3906 6.70825 34.3881 6.6091 34.3612 6.51525C34.3344 6.4214 34.2841 6.33593 34.215 6.26691C34.146 6.19788 34.0605 6.14756 33.9667 6.12069C33.8728 6.09383 33.7737 6.0913 33.6786 6.11335L31.7836 6.56335C31.6609 6.45689 31.5346 6.35474 31.4048 6.2571L31.4761 4.30335C31.4801 4.20603 31.4591 4.10932 31.415 4.02248C31.3709 3.93563 31.3052 3.86156 31.2243 3.80736C31.1434 3.75316 31.0499 3.72065 30.9528 3.71295C30.8557 3.70524 30.7583 3.72259 30.6698 3.76335L28.8998 4.5696C28.7561 4.49335 28.6136 4.4146 28.4636 4.34335L28.1498 2.4221C28.1337 2.32619 28.0934 2.23596 28.0328 2.15993C27.9721 2.08391 27.8931 2.02458 27.8032 1.98756C27.7133 1.95054 27.6154 1.93703 27.5188 1.94832C27.4222 1.95962 27.3301 1.99533 27.2511 2.0521L25.6761 3.18335C25.5198 3.1321 25.3623 3.0871 25.2073 3.0421L24.5223 1.22585C24.4885 1.13498 24.4322 1.0542 24.3586 0.991067C24.285 0.927936 24.1966 0.884528 24.1016 0.864913C24.0067 0.845299 23.9083 0.85012 23.8157 0.878924C23.7231 0.907729 23.6394 0.959574 23.5723 1.0296L22.2436 2.46335C22.0812 2.44181 21.9182 2.42472 21.7548 2.4121L20.7336 0.757097C20.683 0.6738 20.6118 0.604942 20.5268 0.557156C20.4419 0.50937 20.3461 0.484268 20.2486 0.484268C20.1511 0.484268 20.0553 0.50937 19.9704 0.557156C19.8854 0.604942 19.8142 0.6738 19.7636 0.757097L18.7348 2.4121C18.5711 2.42335 18.4098 2.44335 18.2536 2.46335L16.9248 1.0296C16.8576 0.958754 16.7734 0.906212 16.6802 0.876927C16.587 0.847643 16.4879 0.84258 16.3922 0.862218C16.2965 0.881855 16.2074 0.925545 16.1333 0.989166C16.0592 1.05279 16.0025 1.13424 15.9686 1.22585L15.2898 3.0421C15.1286 3.0871 14.9786 3.13835 14.8148 3.18335L13.2398 2.0521C13.1609 1.99533 13.0687 1.95962 12.9721 1.94832C12.8755 1.93703 12.7777 1.95054 12.6877 1.98756C12.5978 2.02458 12.5188 2.08391 12.4581 2.15993C12.3975 2.23596 12.3572 2.32619 12.3411 2.4221L12.0273 4.34335C11.8836 4.4146 11.7423 4.49335 11.5986 4.5696L9.82734 3.76335C9.73888 3.72259 9.64144 3.70524 9.54435 3.71295C9.44726 3.72065 9.35378 3.75316 9.27286 3.80736C9.19194 3.86156 9.12629 3.93563 9.0822 4.02248C9.03812 4.10932 9.01708 4.20603 9.02109 4.30335L9.08609 6.2571C8.96234 6.35585 8.83734 6.45835 8.71484 6.56335L6.81484 6.11335C6.71999 6.0916 6.62116 6.0944 6.52769 6.12146C6.43422 6.14853 6.34919 6.19897 6.28063 6.26803C6.21207 6.33709 6.16225 6.42248 6.13587 6.51615C6.10948 6.60981 6.10741 6.70866 6.12984 6.80335L6.57359 8.69835C6.46859 8.8221 6.37234 8.9446 6.26734 9.0771L4.32109 9.00585C4.22389 9.00219 4.12738 9.02346 4.04073 9.06764C3.95408 9.11182 3.88018 9.17744 3.82605 9.25825C3.77192 9.33906 3.73938 9.43238 3.73151 9.52932C3.72364 9.62627 3.74071 9.72361 3.78109 9.8121L4.58984 11.5821L4.35484 12.0121L2.43484 12.3258C2.33918 12.3424 2.24928 12.3829 2.1735 12.4436C2.09773 12.5043 2.03855 12.5832 2.00149 12.6729C1.96442 12.7626 1.95068 12.8603 1.96154 12.9567C1.9724 13.0532 2.00751 13.1454 2.06359 13.2246L3.20359 14.7996C3.15202 14.9568 3.10409 15.1152 3.05984 15.2746L1.23609 15.9533C1.14505 15.9881 1.06433 16.0454 1.00151 16.1199C0.938695 16.1944 0.895839 16.2836 0.876969 16.3792C0.858099 16.4748 0.863834 16.5736 0.893635 16.6664C0.923437 16.7592 0.976326 16.8429 1.04734 16.9096L2.47234 18.2383C2.45266 18.3983 2.43765 18.5588 2.42734 18.7196L0.767339 19.7483C0.683954 19.7981 0.614917 19.8687 0.566977 19.9532C0.519037 20.0376 0.493835 20.1331 0.493835 20.2302C0.493835 20.3273 0.519037 20.4228 0.566977 20.5073C0.614917 20.5917 0.683954 20.6623 0.767339 20.7121L2.42734 21.7408C2.43859 21.9046 2.45234 22.0671 2.47234 22.2221L1.04734 23.5571C0.975833 23.623 0.922455 23.7061 0.892323 23.7986C0.862192 23.891 0.856319 23.9897 0.875268 24.085C0.894216 24.1804 0.93735 24.2693 1.00053 24.3432C1.06371 24.4171 1.14483 24.4735 1.23609 24.5071L3.05984 25.1921C3.10484 25.3471 3.14984 25.5033 3.20359 25.6608L2.06359 27.2358C2.00675 27.3152 1.97117 27.4078 1.96021 27.5049C1.94926 27.6019 1.9633 27.7001 2.00101 27.7902C2.03871 27.8802 2.09883 27.9592 2.17563 28.0195C2.25244 28.0797 2.34339 28.1194 2.43984 28.1346L4.36109 28.4483C4.43234 28.5921 4.51109 28.7346 4.58984 28.8783L3.78109 30.6483C3.74071 30.7368 3.72364 30.8342 3.73151 30.9311C3.73938 31.0281 3.77192 31.1214 3.82605 31.2022C3.88018 31.283 3.95408 31.3486 4.04073 31.3928C4.12738 31.437 4.22389 31.4583 4.32109 31.4546L6.26734 31.3896C6.37234 31.5146 6.46859 31.6383 6.58109 31.7608L6.13109 33.6621C6.10922 33.7565 6.11175 33.8548 6.13845 33.9479C6.16515 34.041 6.21513 34.1258 6.28368 34.1942C6.35224 34.2626 6.43709 34.3125 6.53024 34.339C6.6234 34.3655 6.72177 34.3679 6.81609 34.3458L8.71609 33.9021C8.83984 34.0071 8.96484 34.1033 9.09484 34.2083L9.02359 36.1546C9.01886 36.2521 9.03943 36.3493 9.08332 36.4365C9.12721 36.5238 9.19292 36.5982 9.27407 36.6525C9.35521 36.7069 9.44903 36.7393 9.54642 36.7467C9.6438 36.754 9.74144 36.7361 9.82984 36.6946L11.6011 35.8883C11.7448 35.9646 11.8861 36.0433 12.0298 36.1221L12.3498 38.0433C12.3656 38.1386 12.4054 38.2282 12.4654 38.3038C12.5254 38.3794 12.6037 38.4385 12.6928 38.4755C12.782 38.5125 12.8791 38.5262 12.975 38.5154C13.0709 38.5045 13.1625 38.4694 13.2411 38.4133L14.8223 37.2746C14.9786 37.3258 15.1361 37.3708 15.2911 37.4158L15.9761 39.2396C16.0089 39.3314 16.065 39.4132 16.1388 39.477C16.2126 39.5408 16.3017 39.5843 16.3973 39.6035C16.493 39.6226 16.5919 39.6166 16.6846 39.5862C16.7773 39.5557 16.8605 39.5018 16.9261 39.4296L18.2548 38.0033C18.4161 38.0233 18.5736 38.0433 18.7361 38.0546L19.7648 39.7146C19.8161 39.797 19.8876 39.865 19.9724 39.9121C20.0573 39.9593 20.1528 39.984 20.2498 39.984C20.3469 39.984 20.4424 39.9593 20.5272 39.9121C20.6121 39.865 20.6835 39.797 20.7348 39.7146L21.7636 38.0546C21.9273 38.0433 22.0836 38.0233 22.2448 38.0033L23.5736 39.4296C23.6399 39.5004 23.7232 39.5531 23.8155 39.5828C23.9079 39.6124 24.0063 39.618 24.1015 39.5989C24.1966 39.5799 24.2853 39.5369 24.3592 39.474C24.433 39.4112 24.4896 39.3305 24.5236 39.2396L25.2086 37.4158C25.3636 37.3708 25.5198 37.3258 25.6773 37.2746L27.2523 38.4133C27.3311 38.4708 27.4233 38.5071 27.5201 38.5188C27.6169 38.5305 27.7151 38.5171 27.8053 38.48C27.8955 38.4428 27.9746 38.3832 28.0352 38.3068C28.0957 38.2303 28.1356 38.1396 28.1511 38.0433L28.4648 36.1221C28.6148 36.0433 28.7586 35.9658 28.9011 35.8883L30.6711 36.6946C30.7596 36.7346 30.8568 36.7514 30.9536 36.7434C31.0505 36.7353 31.1436 36.7028 31.2243 36.6487C31.305 36.5946 31.3706 36.5209 31.4149 36.4344C31.4592 36.348 31.4806 36.2517 31.4773 36.1546L31.4061 34.2083C31.5373 34.1033 31.6611 34.0071 31.7773 33.9021L33.6786 34.3458C33.7731 34.3675 33.8715 34.3649 33.9647 34.3383C34.0579 34.3117 34.1428 34.262 34.2117 34.1938C34.2805 34.1256 34.331 34.0411 34.3584 33.9481C34.3859 33.8551 34.3894 33.7568 34.3686 33.6621L33.9186 31.7608C34.0236 31.6371 34.1273 31.5146 34.2248 31.3896L36.1786 31.4546C36.2759 31.4586 36.3726 31.4376 36.4595 31.3935C36.5463 31.3494 36.6204 31.2837 36.6746 31.2028C36.7288 31.1219 36.7613 31.0284 36.769 30.9313C36.7767 30.8342 36.7593 30.7368 36.7186 30.6483L35.9123 28.8783C35.9886 28.7346 36.0673 28.5921 36.1386 28.4483L38.0598 28.1346C38.1558 28.1185 38.246 28.0782 38.322 28.0176C38.398 27.9569 38.4574 27.8779 38.4944 27.788C38.5314 27.698 38.5449 27.6001 38.5336 27.5035C38.5223 27.4069 38.4866 27.3148 38.4298 27.2358L37.2986 25.6608L37.4398 25.1921L39.2561 24.5071C39.3477 24.4741 39.4292 24.4182 39.493 24.3446C39.5568 24.2711 39.6006 24.1824 39.6203 24.0871C39.64 23.9917 39.6349 23.893 39.6055 23.8002C39.5761 23.7074 39.5233 23.6237 39.4523 23.5571L38.0261 22.2221C38.0398 22.0671 38.0598 21.9033 38.0711 21.7408L39.7323 20.7121C39.8154 20.6621 39.8842 20.5914 39.9319 20.507C39.9796 20.4225 40.0047 20.3272 40.0047 20.2302C40.0047 20.1332 39.9796 20.0379 39.9319 19.9535C39.8842 19.869 39.8154 19.7984 39.7323 19.7483L39.7336 19.7496ZM28.6323 33.4996C27.1023 33.1746 27.5911 30.8758 29.1273 31.2008C29.4322 31.2665 29.6984 31.4505 29.8676 31.7125C30.0367 31.9745 30.0949 32.2929 30.0292 32.5977C29.9636 32.9026 29.7795 33.1688 29.5176 33.338C29.2556 33.5071 28.9372 33.5652 28.6323 33.4996ZM28.0723 29.6908C27.9347 29.6612 27.7926 29.6591 27.6542 29.6846C27.5158 29.7102 27.3838 29.7629 27.2658 29.8397C27.1479 29.9165 27.0463 30.0159 26.967 30.1322C26.8876 30.2484 26.8321 30.3793 26.8036 30.5171L26.2098 33.2571C24.3396 34.1084 22.3084 34.5483 20.2536 34.5471C18.1534 34.5487 16.0782 34.091 14.1736 33.2058L13.5798 30.4596C13.5514 30.3218 13.4958 30.191 13.4163 30.0749C13.3368 29.9588 13.2349 29.8597 13.1167 29.7834C12.9985 29.7071 12.8663 29.6551 12.7277 29.6304C12.5892 29.6057 12.4471 29.6088 12.3098 29.6396L9.88859 30.1533C9.43494 29.6912 9.01511 29.197 8.63234 28.6746H20.4361C20.5673 28.6746 20.6573 28.6558 20.6573 28.5308V24.3596C20.6573 24.2346 20.5673 24.2158 20.4361 24.2158H16.9798V21.5658H20.7161C21.0548 21.5658 22.5398 21.6621 23.0073 23.5571C23.1573 24.1371 23.4836 26.0308 23.7036 26.6371C23.9248 27.3208 24.8298 28.6733 25.7936 28.6733H31.6736C31.7452 28.6734 31.8168 28.6671 31.8873 28.6546C31.4823 29.2099 31.0364 29.7342 30.5536 30.2233L28.0723 29.6908ZM11.7498 33.4471C11.4446 33.51 11.1268 33.4503 10.8651 33.281C10.6035 33.1117 10.4188 32.8463 10.3511 32.5421C10.3178 32.3911 10.3148 32.235 10.3424 32.0828C10.37 31.9306 10.4276 31.7855 10.5118 31.6558C10.596 31.5261 10.7052 31.4144 10.833 31.3273C10.9608 31.2402 11.1046 31.1794 11.2561 31.1483C11.5609 31.0829 11.8793 31.1412 12.1411 31.3104C12.403 31.4797 12.5869 31.746 12.6523 32.0508C12.7178 32.3557 12.6595 32.674 12.4903 32.9359C12.321 33.1977 12.0547 33.3816 11.7498 33.4471ZM7.27234 15.2896C7.34059 15.4317 7.37973 15.586 7.38743 15.7434C7.39514 15.9008 7.37127 16.0582 7.31722 16.2062C7.26317 16.3543 7.18004 16.49 7.07272 16.6054C6.9654 16.7209 6.83607 16.8137 6.69234 16.8783C6.54808 16.9414 6.39271 16.975 6.2353 16.9773C6.07789 16.9796 5.92159 16.9506 5.77555 16.8918C5.6295 16.833 5.49662 16.7458 5.38469 16.6351C5.27275 16.5244 5.18399 16.3925 5.12359 16.2471C4.54984 14.8421 6.61359 13.9233 7.27234 15.2908V15.2896ZM5.89859 18.5508L8.42359 17.4308C8.96484 17.1908 9.20484 16.5596 8.96484 16.0196L8.44359 14.8408H10.4948V24.0658H6.36609C5.85631 22.2748 5.69714 20.4022 5.89734 18.5508H5.89859ZM16.9848 17.6596V14.9383H21.8548C22.1086 14.9383 23.6311 15.2321 23.6311 16.3721C23.6311 17.3221 22.4598 17.6608 21.5023 17.6608L16.9848 17.6596ZM34.6936 20.1071C34.6936 20.4658 34.6798 20.8221 34.6548 21.1733H33.1698C33.0198 21.1733 32.9611 21.2721 32.9611 21.4221V22.0983C32.9611 23.6996 32.0623 24.0446 31.2673 24.1371C30.5123 24.2221 29.6786 23.8233 29.5761 23.3621C29.1323 20.8621 28.3911 20.3283 27.2198 19.4033C28.6711 18.4783 30.1811 17.1246 30.1811 15.3021C30.1811 13.3358 28.8323 12.0983 27.9161 11.4933C26.6261 10.6396 25.2011 10.4721 24.8161 10.4721H9.49734C11.6133 8.10386 14.451 6.49936 17.5711 5.9071L19.3811 7.80835C19.4782 7.9096 19.5942 7.99073 19.7227 8.04711C19.8511 8.10348 19.9894 8.13399 20.1296 8.13689C20.2698 8.1398 20.4093 8.11503 20.5399 8.06402C20.6706 8.01301 20.7899 7.93675 20.8911 7.8396L22.9098 5.90585C24.9703 6.29091 26.9222 7.12 28.6299 8.33553C30.3375 9.55105 31.7601 11.1238 32.7986 12.9446L31.4123 16.0696C31.2992 16.3297 31.2931 16.624 31.3954 16.8886C31.4976 17.1532 31.6999 17.3668 31.9586 17.4833L34.6223 18.6671C34.6673 19.1433 34.6873 19.6183 34.6873 20.1071H34.6936ZM19.3823 4.2996C20.5136 3.2196 22.1361 4.91835 21.0023 5.9996C19.8761 6.97585 18.3586 5.38085 19.3823 4.2996ZM33.1123 15.3471C33.2377 15.0631 33.4708 14.8404 33.7603 14.7282C34.0498 14.6159 34.372 14.6231 34.6561 14.7483C35.6198 15.1721 35.5861 16.5446 34.6098 16.9233C33.6261 17.2996 32.6836 16.3046 33.1136 15.3471H33.1123Z" fill="#A3D9FF"/>
</g>
<defs>
<clipPath id="clip0_301_4891">
<rect width="40" height="40" fill="white" transform="translate(0.249268 0.234146)"/>
</clipPath>
</defs>
</svg>
