<svg width="76" height="76" viewBox="0 0 76 76" fill="none" xmlns="http://www.w3.org/2000/svg">
<path fill-rule="evenodd" clip-rule="evenodd" d="M7.93137 0.409912C4.06537 0.409912 0.931366 3.54392 0.931366 7.40991V68.4099C0.931366 72.2759 4.06537 75.4099 7.93136 75.4099H68.9314C72.7974 75.4099 75.9314 72.2759 75.9314 68.4099V7.40991C75.9314 3.54392 72.7974 0.409912 68.9314 0.409912H7.93137ZM61.3628 23.1319C63.8546 22.8333 66.2249 22.1726 68.4314 21.1949L68.4261 21.2029C66.7743 23.6733 64.6957 25.8298 62.2876 27.5712C62.3114 28.0997 62.3246 28.6335 62.3246 29.162C62.3246 45.429 49.9446 64.1853 27.2986 64.1853C20.6088 64.1928 14.0584 62.2726 8.43137 58.6546C9.40664 58.7693 10.3878 58.8267 11.3698 58.8264C16.9134 58.8346 22.2986 56.9777 26.6591 53.5547C24.0904 53.5076 21.6008 52.6584 19.5387 51.126C17.4765 49.5937 15.9452 47.4548 15.1591 45.0089C17.0044 45.3605 18.9056 45.2882 20.7189 44.7975C17.9326 44.2345 15.4269 42.7248 13.627 40.5246C11.827 38.3244 10.8437 35.5693 10.8439 32.7267V32.5681C12.5533 33.5183 14.4649 34.0465 16.4196 34.1087C14.7341 32.9831 13.3525 31.4589 12.3974 29.6713C11.4423 27.8837 10.9432 25.8879 10.9444 23.8612C10.9444 21.6098 11.5521 19.4958 12.6091 17.6725C15.7004 21.4755 19.5568 24.5859 23.928 26.802C28.2991 29.0181 33.0875 30.2903 37.9821 30.5361C37.3626 27.8956 37.6321 25.1244 38.7489 22.6528C39.8656 20.1812 41.7672 18.1474 44.1582 16.8672C46.5493 15.587 49.2961 15.1321 51.9723 15.573C54.6484 16.0139 57.1041 17.326 58.9581 19.3056C61.7151 18.7644 64.3589 17.7544 66.7745 16.3196C65.8575 19.172 63.9339 21.5934 61.3628 23.1319Z" fill="#073B4C"/>
</svg>
