<svg width="75" height="76" viewBox="0 0 75 76" fill="none" xmlns="http://www.w3.org/2000/svg">
<path fill-rule="evenodd" clip-rule="evenodd" d="M7 0.409912C3.13401 0.409912 0 3.54392 0 7.40991V68.4099C0 72.2759 3.134 75.4099 7 75.4099H68C71.866 75.4099 75 72.2759 75 68.4099V7.40991C75 3.54392 71.866 0.409912 68 0.409912H7ZM22.4982 37.9099C22.4982 50.1769 16.6081 61.0682 7.50183 67.9099C24.0687 67.9079 37.4982 54.4772 37.4982 37.9099C37.4982 21.3426 24.0687 7.91189 7.50183 7.90991C16.6081 14.7516 22.4982 25.6429 22.4982 37.9099ZM37.5018 37.9099C37.5018 21.3426 50.9313 7.91189 67.4982 7.90991C58.3919 14.7516 52.5018 25.6429 52.5018 37.9099C52.5018 50.1769 58.3919 61.0682 67.4982 67.9099C50.9313 67.9079 37.5018 54.4772 37.5018 37.9099Z" fill="#073B4C"/>
</svg>
