<svg width="45" height="40" viewBox="0 0 45 40" fill="none" xmlns="http://www.w3.org/2000/svg">
<path d="M10.2834 38.6963C9.7935 38.281 9.37949 37.7839 9.05978 37.2269L0.739791 22.7736C0.255072 21.9297 0 20.9735 0 20.0004C0 19.0272 0.255072 18.071 0.739791 17.2271L9.05978 2.77345C9.38002 2.21958 9.79361 1.72525 10.2823 1.31231L15.8639 11.3893L11.8332 18.6457C11.6034 19.0582 11.4828 19.5227 11.4828 19.995C11.4828 20.4673 11.6034 20.9317 11.8332 21.3443L15.8678 28.6246L10.2834 38.6963ZM35.2995 2.77345L43.6195 17.2267C44.1069 18.0697 44.3636 19.0262 44.3636 20C44.3636 20.9738 44.1069 21.9303 43.6195 22.7733L35.2995 37.2266C34.813 38.0692 34.1134 38.7691 33.2709 39.2559C32.4284 39.7427 31.4727 39.9993 30.4996 40H23.9685L34.3153 21.344C34.5432 20.9327 34.6628 20.4702 34.6628 20C34.6628 19.5298 34.5432 19.0673 34.3153 18.656L23.9685 0.000357917H30.4996C31.4726 0.000930809 32.4284 0.257471 33.2709 0.744222C34.1134 1.23097 34.813 1.9308 35.2995 2.77345ZM12.2067 0.372441C12.8416 0.127282 13.5161 0.00103317 14.1967 0H21.8011L32.1479 18.656C32.3758 19.0673 32.4954 19.5298 32.4954 20C32.4954 20.4702 32.3758 20.9327 32.1479 21.344L21.8011 40H14.197C13.4593 40 12.7216 39.8487 12.0529 39.5732L21.9693 21.1772C22.2891 20.6012 22.3278 19.4821 22.0076 18.9061L12.2067 0.372441Z" fill="#A3D9FF"/>
</svg>
