<svg width="400" height="400" viewBox="0 0 400 400" fill="none" xmlns="http://www.w3.org/2000/svg">
<g clip-path="url(#clip0_301_3)">
<path fill-rule="evenodd" clip-rule="evenodd" d="M46.5136 328.234C83.1997 284.099 138.513 256 200.39 256C262.047 256 317.189 283.901 353.876 327.766C338.99 345.675 321.036 360.943 300.822 372.765C269.422 361.613 235.615 355.542 200.39 355.542C164.983 355.542 131.01 361.675 99.4731 372.938C79.3146 361.194 61.3958 346.028 46.5136 328.234Z" fill="#F24333"/>
<path fill-rule="evenodd" clip-rule="evenodd" d="M93.2607 30.8342C37.2167 66.2708 0 128.789 0 200C0 310.457 89.5431 400 200 400C221.024 400 241.29 396.756 260.325 390.742C154.731 344.295 81 238.758 81 116C81 86.4159 85.2822 57.8319 93.2607 30.8342Z" fill="#00BFB2"/>
<path fill-rule="evenodd" clip-rule="evenodd" d="M307.064 31C363.108 66.4366 400.325 128.955 400.325 200.166C400.325 310.623 310.782 400.166 200.325 400.166C179.301 400.166 159.035 396.922 140 390.907C245.594 344.46 319.325 238.924 319.325 116.166C319.325 86.5817 315.043 57.9977 307.064 31Z" fill="#A3D9FF"/>
</g>
<defs>
<clipPath id="clip0_301_3">
<rect width="400" height="400" fill="white"/>
</clipPath>
</defs>
</svg>
