<svg width="40" height="40" viewBox="0 0 40 40" fill="none" xmlns="http://www.w3.org/2000/svg">
<g clip-path="url(#clip0_703_1368)">
<path d="M7.24534 2.66669H1.33334C1.09873 2.66662 0.868264 2.72845 0.665199 2.84594C0.462135 2.96344 0.293666 3.13243 0.176803 3.33585C0.0599409 3.53928 -0.00117782 3.76994 -0.000381414 4.00455C0.000414996 4.23915 0.0630984 4.46939 0.181339 4.67202L18.848 36.672C18.9654 36.8735 19.1335 37.0406 19.3357 37.1567C19.5378 37.2729 19.7669 37.334 20 37.334C20.2331 37.334 20.4622 37.2729 20.6643 37.1567C20.8665 37.0406 21.0346 36.8735 21.152 36.672L39.8187 4.67202C39.9369 4.46939 39.9996 4.23915 40.0004 4.00455C40.0012 3.76994 39.9401 3.53928 39.8232 3.33585C39.7063 3.13243 39.5379 2.96344 39.3348 2.84594C39.1317 2.72845 38.9013 2.66662 38.6667 2.66669H32.7547L20 23.9254L7.24534 2.66669Z" fill="#A3D9FF"/>
<path d="M29.6453 2.66669H21.84L20 6.35202L18.1573 2.66669H10.3547L20 18.7414L29.6453 2.66669Z" fill="#A3D9FF"/>
</g>
<defs>
<clipPath id="clip0_703_1368">
<rect width="40" height="40" fill="white"/>
</clipPath>
</defs>
</svg>
