<svg width="1440" height="151" viewBox="0 0 1440 151" fill="none" xmlns="http://www.w3.org/2000/svg">
<path d="M0.00204468 0.409912L60.002 17.8943C120.002 35.5662 240.002 70.2537 360.002 80.4255C480.002 90.4099 600.002 75.4099 720.002 82.9099C840.002 90.4099 960.002 120.41 1080 120.41C1200 120.41 1320 90.4099 1380 75.4099L1440 60.4099V150.41H1380C1320 150.41 1200 150.41 1080 150.41C960.002 150.41 840.002 150.41 720.002 150.41C600.002 150.41 480.002 150.41 360.002 150.41C240.002 150.41 120.002 150.41 60.002 150.41H0.00204468V0.409912Z" fill="#031F28"/>
</svg>
