<svg width="1440" height="68" viewBox="0 0 1440 68" fill="none" xmlns="http://www.w3.org/2000/svg">
<path d="M-3.05176e-05 64.0843L48 58.8052C96 53.7234 192 42.8691 288 40.4022C384 37.9353 480 42.8691 576 43.0171C672 42.8691 768 37.9353 864 43.0171C960 48.2962 1056 64.0843 1152 66.6992C1248 69.5114 1344 58.6571 1392 53.5754L1440 48.2962V0.932007H1392C1344 0.932007 1248 0.932007 1152 0.932007C1056 0.932007 960 0.932007 864 0.932007C768 0.932007 672 0.932007 576 0.932007C480 0.932007 384 0.932007 288 0.932007C192 0.932007 96 0.932007 48 0.932007H-3.05176e-05V64.0843Z" fill="#073B4C"/>
</svg>
