<svg width="51" height="1024" viewBox="0 0 51 1024" fill="none" xmlns="http://www.w3.org/2000/svg">
<path d="M39.1805 0L41.0521 10.0267C42.8537 20.0533 46.7018 39.8222 42.9062 60.4444C39.1805 80.2844 27.9861 100.267 26.1145 120.178C24.3129 140.516 31.6593 160.711 36.3819 180.622C41.1046 200.818 42.8537 221.156 44.7777 241.067C46.7018 261.049 48.4509 280.889 47.5763 301.511C46.7018 321.28 42.8537 341.333 38.2535 361.244C33.5833 381.511 27.9861 401.778 24.2604 421.689C20.4648 441.742 18.7157 461.511 19.5903 482.133C20.4648 501.973 24.3129 521.956 29.8577 541.867C35.5073 562.204 42.8537 582.4 44.7777 602.311C46.7018 622.436 42.8537 642.844 40.1076 662.756C37.2565 682.667 35.5073 702.578 36.3819 722.489C37.2565 742.898 41.1046 763.022 41.0521 782.933C41.1046 803.129 37.2565 823.467 35.4549 843.378C33.5833 863.36 33.5833 883.2 35.4549 903.822C37.2565 923.591 41.1046 943.644 43.8507 963.556C46.7018 983.822 48.4509 1004.09 49.4479 1014.04L50.3749 1024H1.95503e-05V1013.97C1.95503e-05 1003.95 1.95503e-05 984.178 1.95503e-05 963.556C1.95503e-05 943.716 1.95503e-05 923.733 1.95503e-05 903.822C1.95503e-05 883.484 1.95503e-05 863.289 1.95503e-05 843.378C1.95503e-05 823.182 1.95503e-05 802.844 1.95503e-05 782.933C1.95503e-05 762.951 1.95503e-05 743.111 1.95503e-05 722.489C1.95503e-05 702.72 1.95503e-05 682.667 1.95503e-05 662.756C1.95503e-05 642.489 1.95503e-05 622.222 1.95503e-05 602.311C1.95503e-05 582.258 1.95503e-05 562.489 1.95503e-05 541.867C1.95503e-05 522.027 1.95503e-05 502.044 1.95503e-05 482.133C1.95503e-05 461.796 1.95503e-05 441.6 1.95503e-05 421.689C1.95503e-05 401.564 1.95503e-05 381.156 1.95503e-05 361.244C1.95503e-05 341.333 1.95503e-05 321.422 1.95503e-05 301.511C1.95503e-05 281.102 1.95503e-05 260.978 1.95503e-05 241.067C1.95503e-05 220.871 1.95503e-05 200.533 1.95503e-05 180.622C1.95503e-05 160.64 1.95503e-05 140.8 1.95503e-05 120.178C1.95503e-05 100.409 1.95503e-05 80.3556 1.95503e-05 60.4444C1.95503e-05 40.1778 1.95503e-05 19.9111 1.95503e-05 9.95556V0L39.1805 0Z" fill="#052C39"/>
</svg>
