<svg width="1212" height="590" viewBox="0 0 1212 590" fill="none" xmlns="http://www.w3.org/2000/svg">
<rect width="1211.53" height="590" fill="#052C39"/>
<circle cx="606" cy="295" r="277" fill="#1F2421" stroke="#94C29D" stroke-width="12"/>
<circle cx="921" cy="110" r="56" fill="#1F2421" stroke="#94C29D" stroke-width="6"/>
<circle cx="132" cy="449" r="89" fill="#1F2421" stroke="#94C29D" stroke-width="6"/>
<circle cx="314" cy="468" r="40.5" fill="#1F2421" stroke="#94C29D" stroke-width="3"/>
<circle cx="272" cy="357" r="20" fill="#1F2421" stroke="#94C29D" stroke-width="2"/>
<circle cx="242" cy="201" r="40.5" fill="#1F2421" stroke="#94C29D" stroke-width="3"/>
<circle cx="83" cy="137" r="31" fill="#1F2421" stroke="#94C29D" stroke-width="2"/>
<circle cx="941" cy="240" r="37.5" fill="#1F2421" stroke="#94C29D" stroke-width="3"/>
<circle cx="1010" cy="184" r="29" fill="#1F2421" stroke="#94C29D" stroke-width="2"/>
<circle cx="941" cy="478" r="28.5" fill="#1F2421" stroke="#94C29D" stroke-width="3"/>
<circle cx="1089" cy="370" r="88" fill="#1F2421" stroke="#94C29D" stroke-width="6"/>
<g clip-path="url(#clip0_703_1613)">
<path d="M791 110H420V481H791V110Z" fill="#1F2421"/>
<mask id="mask0_703_1613" style="mask-type:luminance" maskUnits="userSpaceOnUse" x="443" y="133" width="325" height="345">
<path d="M767.625 133H443V478H767.625V133Z" fill="white"/>
</mask>
<g mask="url(#mask0_703_1613)">
<path d="M443 378.517C443 377.086 443.353 375.677 444.028 374.415L516.489 238.949C520.756 230.972 532.852 234.004 532.852 243.051V390.961C532.852 395.763 528.959 399.656 524.156 399.656H451.695C446.893 399.656 443 395.763 443 390.961V378.517Z" fill="url(#paint0_linear_703_1613)"/>
<path d="M561.836 227.127C561.836 219.721 570.503 215.705 576.153 220.493L648.614 281.905C650.563 283.557 651.688 285.983 651.688 288.538V390.961C651.688 395.763 647.795 399.656 642.992 399.656H570.531C565.729 399.656 561.836 395.763 561.836 390.961V227.127Z" fill="url(#paint1_linear_703_1613)"/>
<path d="M677.773 284.707C677.773 283.331 678.1 281.974 678.727 280.748L751.188 139.056C755.347 130.924 767.625 133.882 767.625 143.015V390.961C767.625 395.763 763.732 399.656 758.93 399.656H686.469C681.666 399.656 677.773 395.763 677.773 390.961V284.707Z" fill="url(#paint2_linear_703_1613)"/>
<path d="M722.699 466.32C747.511 466.32 767.625 446.206 767.625 421.395C767.625 396.583 747.511 376.469 722.699 376.469C697.887 376.469 677.773 396.583 677.773 421.395C677.773 446.206 697.887 466.32 722.699 466.32Z" fill="url(#paint3_linear_703_1613)" stroke="#1F2421" stroke-width="6"/>
<path d="M606.762 466.32C631.574 466.32 651.688 446.206 651.688 421.395C651.688 396.583 631.574 376.469 606.762 376.469C581.95 376.469 561.836 396.583 561.836 421.395C561.836 446.206 581.95 466.32 606.762 466.32Z" fill="url(#paint4_linear_703_1613)" stroke="#1F2421" stroke-width="6"/>
<path d="M487.926 466.32C512.738 466.32 532.852 446.206 532.852 421.395C532.852 396.583 512.738 376.469 487.926 376.469C463.114 376.469 443 396.583 443 421.395C443 446.206 463.114 466.32 487.926 466.32Z" fill="url(#paint5_linear_703_1613)" stroke="#1F2421" stroke-width="6"/>
</g>
</g>
<defs>
<linearGradient id="paint0_linear_703_1613" x1="443" y1="211.349" x2="588.758" y2="278.741" gradientUnits="userSpaceOnUse">
<stop stop-color="#9CC5A1"/>
<stop offset="0.0001" stop-color="#9CC5A1"/>
<stop offset="0.458333" stop-color="#9CC5A1"/>
<stop offset="0.463542" stop-color="#9CC5A1"/>
<stop offset="1" stop-color="#49A078"/>
</linearGradient>
<linearGradient id="paint1_linear_703_1613" x1="561.836" y1="211.349" x2="707.594" y2="278.741" gradientUnits="userSpaceOnUse">
<stop stop-color="#9CC5A1"/>
<stop offset="0.0001" stop-color="#9CC5A1"/>
<stop offset="0.458333" stop-color="#9CC5A1"/>
<stop offset="0.463542" stop-color="#9CC5A1"/>
<stop offset="1" stop-color="#49A078"/>
</linearGradient>
<linearGradient id="paint2_linear_703_1613" x1="677.773" y1="111.488" x2="839.892" y2="160.47" gradientUnits="userSpaceOnUse">
<stop stop-color="#9CC5A1"/>
<stop offset="0.0001" stop-color="#9CC5A1"/>
<stop offset="0.458333" stop-color="#9CC5A1"/>
<stop offset="0.463542" stop-color="#9CC5A1"/>
<stop offset="1" stop-color="#49A078"/>
</linearGradient>
<linearGradient id="paint3_linear_703_1613" x1="677.773" y1="377.873" x2="767.625" y2="466.32" gradientUnits="userSpaceOnUse">
<stop stop-color="#216869"/>
<stop offset="1" stop-color="#1F2421"/>
</linearGradient>
<linearGradient id="paint4_linear_703_1613" x1="561.836" y1="377.873" x2="651.687" y2="466.32" gradientUnits="userSpaceOnUse">
<stop stop-color="#216869"/>
<stop offset="1" stop-color="#1F2421"/>
</linearGradient>
<linearGradient id="paint5_linear_703_1613" x1="443" y1="377.873" x2="532.852" y2="466.32" gradientUnits="userSpaceOnUse">
<stop stop-color="#216869"/>
<stop offset="1" stop-color="#1F2421"/>
</linearGradient>
<clipPath id="clip0_703_1613">
<rect width="371" height="371" fill="white" transform="translate(420 110)"/>
</clipPath>
</defs>
</svg>
