<svg width="1212" height="590" viewBox="0 0 1212 590" fill="none" xmlns="http://www.w3.org/2000/svg">
<mask id="path-1-outside-1_301_926" maskUnits="userSpaceOnUse" x="413.436" y="112.863" width="385" height="364" fill="black">
<rect fill="white" x="413.436" y="112.863" width="385" height="364"/>
<path d="M646.856 325.5C646.856 406.485 628.829 472.136 606.592 472.136C584.354 472.136 566.327 406.485 566.327 325.5C566.327 244.515 584.354 178.864 606.592 178.864C628.829 178.864 646.856 244.515 646.856 325.5Z"/>
<path d="M636.962 117.863L639.62 119.103L619.416 161.043L617.289 160.052L636.962 117.863Z"/>
<path d="M637.908 122.643L639.62 119.103L649.158 145.516L647.707 146.172L637.908 122.643Z"/>
<path d="M575.328 117.863L572.67 119.103L592.874 161.043L595 160.052L575.328 117.863Z"/>
<path d="M574.424 122.73L572.67 119.103L563.132 145.516L564.583 146.172L574.424 122.73Z"/>
<path fill-rule="evenodd" clip-rule="evenodd" d="M700.649 456.614C700.77 456.575 700.889 456.534 701.008 456.49C721.905 448.885 716.391 381.027 688.692 304.926C660.994 228.825 621.6 173.299 600.703 180.904C600.584 180.948 608.675 188.201 608.558 188.249L605.767 195.92L700.649 456.614Z"/>
<path fill-rule="evenodd" clip-rule="evenodd" d="M510.881 456.614C510.761 456.575 510.641 456.534 510.522 456.49C489.625 448.885 495.139 381.027 522.838 304.926C550.536 228.825 589.93 173.299 610.827 180.904C610.946 180.948 611.064 180.993 611.182 181.04L510.881 456.614Z"/>
<path fill-rule="evenodd" clip-rule="evenodd" d="M748.152 439.085C748.264 439.026 748.375 438.964 748.485 438.901C767.743 427.782 750.529 361.913 710.037 291.778C669.544 221.643 621.107 173.8 601.848 184.919C601.739 184.983 608.665 185.836 608.558 185.902L605.338 191.724L748.152 439.085Z"/>
<path fill-rule="evenodd" clip-rule="evenodd" d="M464.551 435.566C464.439 435.506 464.328 435.445 464.219 435.382C444.96 424.263 462.174 358.393 502.666 288.258C543.159 218.123 591.597 170.281 610.855 181.4C610.965 181.463 611.073 181.529 611.181 181.596L464.551 435.566Z"/>
<path fill-rule="evenodd" clip-rule="evenodd" d="M788.854 406.183C788.954 406.105 789.052 406.025 789.149 405.944C806.184 391.65 777.794 329.77 725.738 267.732C673.682 205.694 617.672 166.99 600.637 181.284C600.54 181.365 600.445 181.448 600.35 181.533L788.854 406.183Z"/>
<path fill-rule="evenodd" clip-rule="evenodd" d="M422.676 406.183C422.576 406.105 422.478 406.025 422.381 405.944C405.346 391.65 433.736 329.77 485.792 267.732C537.848 205.694 593.858 166.99 610.893 181.284C610.99 181.365 611.086 181.448 611.18 181.533L422.676 406.183Z"/>
<path fill-rule="evenodd" clip-rule="evenodd" d="M643.141 387.11C633.152 404.302 620.272 414.655 606.212 414.655C592.603 414.655 580.1 404.956 570.254 388.745C576.739 438.07 590.573 472.136 606.592 472.136C622.787 472.136 636.749 437.315 643.141 387.11ZM607.234 178.882C606.971 178.873 606.708 178.867 606.444 178.865C606.493 178.864 606.542 178.864 606.592 178.864C606.806 178.864 607.02 178.87 607.234 178.882Z"/>
<path d="M630.847 173.585C630.847 182.331 619.817 189.422 606.212 189.422C592.606 189.422 581.577 182.331 581.577 173.585C581.577 164.839 592.606 157.748 606.212 157.748C619.817 157.748 630.847 164.839 630.847 173.585Z"/>
</mask>
<path d="M646.856 325.5C646.856 406.485 628.829 472.136 606.592 472.136C584.354 472.136 566.327 406.485 566.327 325.5C566.327 244.515 584.354 178.864 606.592 178.864C628.829 178.864 646.856 244.515 646.856 325.5Z" fill="white"/>
<path d="M636.962 117.863L639.62 119.103L619.416 161.043L617.289 160.052L636.962 117.863Z" fill="white"/>
<path d="M637.908 122.643L639.62 119.103L649.158 145.516L647.707 146.172L637.908 122.643Z" fill="white"/>
<path d="M575.328 117.863L572.67 119.103L592.874 161.043L595 160.052L575.328 117.863Z" fill="white"/>
<path d="M574.424 122.73L572.67 119.103L563.132 145.516L564.583 146.172L574.424 122.73Z" fill="white"/>
<path fill-rule="evenodd" clip-rule="evenodd" d="M700.649 456.614C700.77 456.575 700.889 456.534 701.008 456.49C721.905 448.885 716.391 381.027 688.692 304.926C660.994 228.825 621.6 173.299 600.703 180.904C600.584 180.948 608.675 188.201 608.558 188.249L605.767 195.92L700.649 456.614Z" fill="white"/>
<path fill-rule="evenodd" clip-rule="evenodd" d="M510.881 456.614C510.761 456.575 510.641 456.534 510.522 456.49C489.625 448.885 495.139 381.027 522.838 304.926C550.536 228.825 589.93 173.299 610.827 180.904C610.946 180.948 611.064 180.993 611.182 181.04L510.881 456.614Z" fill="white"/>
<path fill-rule="evenodd" clip-rule="evenodd" d="M748.152 439.085C748.264 439.026 748.375 438.964 748.485 438.901C767.743 427.782 750.529 361.913 710.037 291.778C669.544 221.643 621.107 173.8 601.848 184.919C601.739 184.983 608.665 185.836 608.558 185.902L605.338 191.724L748.152 439.085Z" fill="white"/>
<path fill-rule="evenodd" clip-rule="evenodd" d="M464.551 435.566C464.439 435.506 464.328 435.445 464.219 435.382C444.96 424.263 462.174 358.393 502.666 288.258C543.159 218.123 591.597 170.281 610.855 181.4C610.965 181.463 611.073 181.529 611.181 181.596L464.551 435.566Z" fill="white"/>
<path fill-rule="evenodd" clip-rule="evenodd" d="M788.854 406.183C788.954 406.105 789.052 406.025 789.149 405.944C806.184 391.65 777.794 329.77 725.738 267.732C673.682 205.694 617.672 166.99 600.637 181.284C600.54 181.365 600.445 181.448 600.35 181.533L788.854 406.183Z" fill="white"/>
<path fill-rule="evenodd" clip-rule="evenodd" d="M422.676 406.183C422.576 406.105 422.478 406.025 422.381 405.944C405.346 391.65 433.736 329.77 485.792 267.732C537.848 205.694 593.858 166.99 610.893 181.284C610.99 181.365 611.086 181.448 611.18 181.533L422.676 406.183Z" fill="white"/>
<path fill-rule="evenodd" clip-rule="evenodd" d="M643.141 387.11C633.152 404.302 620.272 414.655 606.212 414.655C592.603 414.655 580.1 404.956 570.254 388.745C576.739 438.07 590.573 472.136 606.592 472.136C622.787 472.136 636.749 437.315 643.141 387.11ZM607.234 178.882C606.971 178.873 606.708 178.867 606.444 178.865C606.493 178.864 606.542 178.864 606.592 178.864C606.806 178.864 607.02 178.87 607.234 178.882Z" fill="white"/>
<path d="M630.847 173.585C630.847 182.331 619.817 189.422 606.212 189.422C592.606 189.422 581.577 182.331 581.577 173.585C581.577 164.839 592.606 157.748 606.212 157.748C619.817 157.748 630.847 164.839 630.847 173.585Z" fill="white"/>
<path d="M636.962 117.863L638.652 114.238C637.691 113.79 636.591 113.742 635.594 114.105C634.597 114.467 633.785 115.211 633.337 116.173L636.962 117.863ZM639.62 119.103L643.382 117.744C643.021 116.743 642.275 115.927 641.31 115.477L639.62 119.103ZM619.416 161.043L617.725 164.668C619.709 165.594 622.069 164.752 623.019 162.779L619.416 161.043ZM617.289 160.052L613.664 158.361C612.73 160.363 613.597 162.743 615.599 163.677L617.289 160.052ZM637.908 122.643L634.307 120.901C633.809 121.931 633.776 123.125 634.215 124.18L637.908 122.643ZM649.158 145.516L650.805 149.161C652.708 148.301 653.629 146.122 652.92 144.158L649.158 145.516ZM647.707 146.172L644.014 147.71C644.43 148.709 645.233 149.496 646.239 149.893C647.245 150.29 648.369 150.263 649.354 149.817L647.707 146.172ZM575.328 117.863L578.953 116.173C578.019 114.171 575.639 113.304 573.637 114.238L575.328 117.863ZM572.67 119.103L570.979 115.477C570.015 115.927 569.269 116.743 568.908 117.744L572.67 119.103ZM592.874 161.043L589.27 162.779C590.221 164.752 592.58 165.594 594.565 164.668L592.874 161.043ZM595.001 160.052L596.691 163.677C597.652 163.228 598.396 162.417 598.759 161.42C599.122 160.423 599.074 159.323 598.626 158.361L595.001 160.052ZM574.424 122.73L578.112 124.278C578.556 123.22 578.524 122.022 578.025 120.988L574.424 122.73ZM563.132 145.516L559.37 144.158C558.66 146.122 559.581 148.301 561.484 149.161L563.132 145.516ZM564.583 146.172L562.935 149.817C563.919 150.262 565.041 150.29 566.046 149.895C567.051 149.5 567.853 148.716 568.271 147.721L564.583 146.172ZM701.008 456.49L702.376 460.249L701.008 456.49ZM700.649 456.614L696.89 457.982C697.628 460.009 699.84 461.086 701.89 460.417L700.649 456.614ZM600.703 180.904L602.071 184.663L600.703 180.904ZM608.558 188.249L607.064 184.538C606.011 184.962 605.187 185.814 604.799 186.881L608.558 188.249ZM605.767 195.92L602.008 194.552C601.687 195.436 601.687 196.404 602.008 197.288L605.767 195.92ZM510.522 456.49L509.154 460.249L510.522 456.49ZM510.881 456.614L509.64 460.417C511.69 461.086 513.902 460.009 514.64 457.982L510.881 456.614ZM610.827 180.904L609.459 184.663L610.827 180.904ZM611.182 181.04L614.94 182.408C615.678 180.382 614.676 178.135 612.675 177.33L611.182 181.04ZM748.485 438.901L750.485 442.365L748.485 438.901ZM748.152 439.085L744.688 441.085C745.767 442.953 748.132 443.63 750.035 442.615L748.152 439.085ZM601.848 184.919L603.848 188.383L601.848 184.919ZM608.558 185.902L606.443 182.508C605.864 182.868 605.387 183.37 605.058 183.967L608.558 185.902ZM605.338 191.724L601.838 189.788C601.159 191.015 601.173 192.509 601.874 193.724L605.338 191.724ZM464.219 435.382L462.219 438.846L464.219 435.382ZM464.551 435.566L462.669 439.095C464.572 440.11 466.937 439.434 468.015 437.566L464.551 435.566ZM610.855 181.4L608.855 184.864L610.855 181.4ZM611.181 181.596L614.645 183.596C615.723 181.728 615.127 179.341 613.296 178.201L611.181 181.596ZM789.149 405.944L786.578 402.88L789.149 405.944ZM788.854 406.183L785.79 408.754C787.176 410.406 789.623 410.662 791.321 409.332L788.854 406.183ZM600.637 181.284L598.066 178.22L600.637 181.284ZM600.35 181.533L597.678 178.557C596.073 179.998 595.9 182.452 597.286 184.104L600.35 181.533ZM422.381 405.944L424.952 402.88L422.381 405.944ZM422.676 406.183L420.209 409.332C421.907 410.662 424.354 410.406 425.74 408.754L422.676 406.183ZM610.893 181.284L613.464 178.22L610.893 181.284ZM611.18 181.533L614.244 184.104C615.63 182.452 615.457 179.998 613.852 178.557L611.18 181.533ZM643.141 387.11L647.109 387.615C647.349 385.727 646.226 383.931 644.424 383.321C642.621 382.711 640.638 383.455 639.682 385.1L643.141 387.11ZM570.254 388.745L573.673 386.668C572.691 385.052 570.711 384.344 568.926 384.971C567.142 385.599 566.041 387.391 566.288 389.266L570.254 388.745ZM606.444 178.865L606.392 174.865C604.2 174.894 602.439 176.682 602.444 178.875C602.45 181.067 604.219 182.847 606.412 182.865L606.444 178.865ZM607.234 178.882L607.091 182.88C609.282 182.958 611.128 181.258 611.23 179.067C611.331 176.877 609.65 175.013 607.461 174.889L607.234 178.882ZM642.856 325.5C642.856 365.74 638.373 402.027 631.206 428.129C627.614 441.208 623.41 451.503 618.909 458.435C614.297 465.54 610.046 468.137 606.592 468.137V476.137C614.256 476.137 620.597 470.527 625.619 462.791C630.754 454.883 635.225 443.703 638.92 430.247C646.326 403.277 650.856 366.245 650.856 325.5H642.856ZM606.592 468.137C603.137 468.137 598.886 465.54 594.274 458.435C589.773 451.503 585.569 441.208 581.977 428.129C574.81 402.027 570.327 365.74 570.327 325.5H562.327C562.327 366.245 566.857 403.277 574.263 430.247C577.958 443.703 582.429 454.883 587.564 462.791C592.586 470.527 598.927 476.137 606.592 476.137V468.137ZM570.327 325.5C570.327 285.26 574.81 248.974 581.977 222.872C585.569 209.792 589.773 199.497 594.274 192.565C598.886 185.461 603.137 182.864 606.592 182.864V174.864C598.927 174.864 592.586 180.474 587.564 188.209C582.429 196.118 577.958 207.297 574.263 220.754C566.857 247.723 562.327 284.755 562.327 325.5H570.327ZM606.592 182.864C610.046 182.864 614.297 185.461 618.909 192.565C623.41 199.497 627.614 209.792 631.206 222.872C638.373 248.974 642.856 285.26 642.856 325.5H650.856C650.856 284.755 646.326 247.723 638.92 220.754C635.225 207.297 630.754 196.118 625.619 188.209C620.597 180.474 614.256 174.864 606.592 174.864V182.864ZM635.271 121.489L637.929 122.728L641.31 115.477L638.652 114.238L635.271 121.489ZM636.016 117.367L615.812 159.307L623.019 162.779L643.224 120.839L636.016 117.367ZM621.106 157.418L618.98 156.426L615.599 163.677L617.725 164.668L621.106 157.418ZM620.914 161.742L640.587 119.554L633.337 116.173L613.664 158.361L620.914 161.742ZM641.509 124.384L643.221 120.844L636.019 117.361L634.307 120.901L641.509 124.384ZM635.858 120.461L645.396 146.875L652.92 144.158L643.382 117.744L635.858 120.461ZM647.511 141.871L646.06 142.527L649.354 149.817L650.805 149.161L647.511 141.871ZM651.4 144.634L641.601 121.105L634.215 124.18L644.014 147.71L651.4 144.634ZM573.637 114.238L570.979 115.477L574.36 122.728L577.018 121.489L573.637 114.238ZM569.066 120.839L589.27 162.779L596.478 159.307L576.273 117.367L569.066 120.839ZM594.565 164.668L596.691 163.677L593.31 156.426L591.184 157.418L594.565 164.668ZM598.626 158.361L578.953 116.173L571.703 119.554L591.375 161.742L598.626 158.361ZM578.025 120.988L576.271 117.361L569.069 120.844L570.823 124.471L578.025 120.988ZM568.908 117.744L559.37 144.158L566.894 146.875L576.432 120.461L568.908 117.744ZM561.484 149.161L562.935 149.817L566.23 142.527L564.779 141.871L561.484 149.161ZM568.271 147.721L578.112 124.278L570.736 121.182L560.895 144.624L568.271 147.721ZM699.64 452.732C699.563 452.76 699.486 452.786 699.408 452.812L701.89 460.417C702.053 460.364 702.215 460.308 702.376 460.249L699.64 452.732ZM684.934 306.294C698.697 344.108 706.894 379.739 709.087 406.718C710.185 420.237 709.755 431.349 707.897 439.402C705.993 447.656 702.886 451.55 699.64 452.732L702.376 460.249C709.579 457.628 713.619 450.188 715.692 441.201C717.812 432.013 718.191 419.979 717.06 406.07C714.795 378.194 706.387 341.846 692.451 303.558L684.934 306.294ZM602.071 184.663C605.317 183.482 610.2 184.468 616.964 189.567C623.564 194.541 631.036 202.777 638.885 213.84C654.547 235.916 671.171 268.481 684.934 306.294L692.451 303.558C678.516 265.27 661.593 232.021 645.409 209.211C637.335 197.83 629.309 188.854 621.78 183.178C614.415 177.627 606.538 174.524 599.335 177.146L602.071 184.663ZM610.052 191.959C610.86 191.634 611.633 191.011 612.111 190.087C612.546 189.247 612.58 188.462 612.551 187.998C612.5 187.167 612.196 186.573 612.132 186.445C611.94 186.064 611.726 185.797 611.692 185.754C611.56 185.585 611.434 185.453 611.392 185.408C611.276 185.286 611.143 185.156 611.03 185.047C610.79 184.813 610.458 184.503 610.085 184.156C609.332 183.457 608.324 182.534 607.331 181.625C606.33 180.709 605.346 179.807 604.618 179.132C604.251 178.791 603.97 178.527 603.791 178.354C603.694 178.261 603.665 178.23 603.674 178.24C603.68 178.246 603.697 178.264 603.721 178.291C603.741 178.313 603.793 178.372 603.858 178.454C603.879 178.481 604.088 178.738 604.277 179.113C604.336 179.232 604.651 179.841 604.696 180.696C604.722 181.177 604.675 181.99 604.199 182.847C603.68 183.783 602.87 184.373 602.071 184.663L599.335 177.146C598.536 177.437 597.725 178.027 597.205 178.964C596.729 179.822 596.682 180.635 596.707 181.117C596.753 181.975 597.069 182.587 597.131 182.71C597.324 183.094 597.54 183.362 597.573 183.404C597.705 183.571 597.83 183.704 597.872 183.747C597.987 183.868 598.119 183.998 598.232 184.107C598.472 184.339 598.802 184.649 599.175 184.995C599.928 185.694 600.936 186.617 601.929 187.525C602.929 188.441 603.914 189.343 604.641 190.018C605.008 190.359 605.289 190.623 605.468 190.796C605.565 190.89 605.594 190.92 605.584 190.909C605.578 190.903 605.561 190.885 605.536 190.858C605.516 190.835 605.464 190.776 605.399 190.694C605.377 190.665 605.171 190.41 604.983 190.037C604.921 189.914 604.618 189.324 604.567 188.494C604.538 188.031 604.572 187.248 605.007 186.408C605.485 185.486 606.256 184.863 607.064 184.538L610.052 191.959ZM604.799 186.881L602.008 194.552L609.526 197.287L612.317 189.616L604.799 186.881ZM602.008 197.288L696.89 457.982L704.408 455.246L609.526 194.552L602.008 197.288ZM509.154 460.249C509.315 460.308 509.477 460.364 509.64 460.417L512.122 452.812C512.044 452.786 511.967 452.76 511.89 452.732L509.154 460.249ZM519.079 303.558C505.143 341.846 496.735 378.194 494.47 406.07C493.34 419.979 493.718 432.013 495.838 441.201C497.911 450.188 501.951 457.628 509.154 460.249L511.89 452.732C508.644 451.55 505.537 447.656 503.633 439.402C501.775 431.349 501.345 420.237 502.443 406.718C504.636 379.739 512.834 344.108 526.597 306.294L519.079 303.558ZM612.195 177.146C604.993 174.524 597.115 177.627 589.75 183.178C582.221 188.854 574.195 197.83 566.121 209.211C549.937 232.021 533.015 265.27 519.079 303.558L526.597 306.294C540.359 268.481 556.983 235.916 572.645 213.84C580.494 202.777 587.966 194.541 594.566 189.567C601.33 184.468 606.213 183.482 609.459 184.663L612.195 177.146ZM612.675 177.33C612.516 177.266 612.356 177.204 612.195 177.146L609.459 184.663C609.536 184.691 609.612 184.721 609.688 184.751L612.675 177.33ZM607.423 179.672L507.122 455.246L514.64 457.982L614.94 182.408L607.423 179.672ZM746.485 435.437C746.413 435.478 746.342 435.517 746.27 435.556L750.035 442.615C750.186 442.534 750.336 442.451 750.485 442.365L746.485 435.437ZM706.573 293.778C726.693 328.627 740.953 362.293 747.797 388.482C751.227 401.605 752.733 412.623 752.301 420.876C751.859 429.335 749.476 433.71 746.485 435.437L750.485 442.365C757.122 438.533 759.809 430.504 760.291 421.294C760.783 411.877 759.066 399.96 755.537 386.459C748.466 359.4 733.873 325.064 713.501 289.778L706.573 293.778ZM603.848 188.383C606.84 186.656 611.82 186.78 619.367 190.626C626.73 194.379 635.519 201.193 645.169 210.724C664.427 229.745 686.453 258.929 706.573 293.778L713.501 289.778C693.129 254.492 670.689 224.686 650.791 205.032C640.862 195.226 631.4 187.781 623 183.499C614.783 179.31 606.486 177.623 599.848 181.455L603.848 188.383ZM610.673 189.297C611.13 189.013 612.602 187.925 612.558 185.817C612.521 184.009 611.343 183.013 611.123 182.83C610.752 182.519 610.41 182.35 610.284 182.29C610.119 182.211 609.982 182.159 609.901 182.13C609.633 182.033 609.401 181.984 609.365 181.976C609.211 181.942 609.054 181.915 608.954 181.898C608.726 181.86 608.426 181.816 608.105 181.77C607.453 181.677 606.583 181.559 605.736 181.445C604.878 181.33 604.043 181.217 603.429 181.13C603.116 181.086 602.893 181.052 602.761 181.031C602.682 181.017 602.698 181.019 602.759 181.032C602.78 181.036 602.822 181.046 602.877 181.06C602.921 181.071 603.037 181.102 603.185 181.154C603.259 181.18 603.39 181.228 603.55 181.303C603.668 181.359 604.012 181.524 604.388 181.832C604.587 181.996 605.864 183.042 605.847 184.957C605.827 187.13 604.232 188.162 603.848 188.383L599.848 181.455C599.463 181.678 597.867 182.71 597.847 184.885C597.83 186.801 599.108 187.848 599.309 188.013C599.686 188.323 600.032 188.49 600.155 188.547C600.317 188.623 600.453 188.673 600.532 188.701C600.794 188.793 601.02 188.841 601.054 188.848C601.205 188.881 601.359 188.907 601.458 188.924C601.684 188.961 601.982 189.005 602.302 189.05C602.953 189.143 603.822 189.26 604.668 189.374C605.526 189.489 606.361 189.602 606.974 189.689C607.286 189.734 607.508 189.767 607.638 189.789C607.717 189.802 607.698 189.801 607.633 189.786C607.611 189.781 607.567 189.771 607.51 189.756C607.465 189.744 607.346 189.712 607.195 189.658C607.119 189.631 606.985 189.58 606.825 189.503C606.702 189.444 606.362 189.277 605.992 188.968C605.774 188.786 604.598 187.791 604.56 185.984C604.516 183.878 605.988 182.791 606.443 182.508L610.673 189.297ZM605.058 183.967L601.838 189.788L608.839 193.66L612.058 187.838L605.058 183.967ZM601.874 193.724L744.688 441.085L751.617 437.085L608.802 189.724L601.874 193.724ZM462.219 438.846C462.367 438.931 462.517 439.014 462.669 439.095L466.433 432.036C466.361 431.998 466.29 431.959 466.219 431.917L462.219 438.846ZM499.202 286.258C478.83 321.544 464.237 355.88 457.166 382.94C453.638 396.441 451.921 408.358 452.413 417.774C452.894 426.985 455.581 435.013 462.219 438.846L466.219 431.917C463.227 430.19 460.844 425.816 460.402 417.357C459.97 409.104 461.477 398.085 464.906 384.962C471.75 358.774 486.01 325.107 506.13 290.258L499.202 286.258ZM612.855 177.936C606.217 174.104 597.921 175.791 589.704 179.979C581.303 184.261 571.841 191.707 561.913 201.513C542.014 221.167 519.575 250.972 499.202 286.258L506.13 290.258C526.251 255.409 548.276 226.226 567.534 207.205C577.184 197.673 585.973 190.86 593.337 187.107C600.883 183.26 605.864 183.137 608.855 184.864L612.855 177.936ZM613.296 178.201C613.151 178.11 613.004 178.022 612.855 177.936L608.855 184.864C608.926 184.905 608.996 184.947 609.065 184.99L613.296 178.201ZM607.717 179.596L461.087 433.566L468.015 437.566L614.645 183.596L607.717 179.596ZM786.578 402.88C786.515 402.932 786.452 402.984 786.388 403.034L791.321 409.332C791.456 409.226 791.589 409.118 791.72 409.008L786.578 402.88ZM722.674 270.303C748.54 301.129 768.43 331.808 779.717 356.41C785.373 368.738 788.77 379.327 789.778 387.53C790.812 395.937 789.224 400.659 786.578 402.88L791.72 409.008C797.592 404.081 798.844 395.708 797.718 386.554C796.568 377.195 792.807 365.757 786.988 353.074C775.326 327.654 754.992 296.373 728.802 265.161L722.674 270.303ZM603.208 184.348C605.854 182.128 610.78 181.384 618.88 183.862C626.783 186.279 636.622 191.463 647.781 199.174C670.049 214.562 696.808 239.477 722.674 270.303L728.802 265.161C702.612 233.949 675.338 208.493 652.329 192.593C640.848 184.66 630.237 178.97 621.221 176.212C612.401 173.514 603.938 173.293 598.066 178.22L603.208 184.348ZM603.023 184.509C603.084 184.454 603.146 184.401 603.208 184.348L598.066 178.22C597.935 178.33 597.805 178.443 597.678 178.557L603.023 184.509ZM597.286 184.104L785.79 408.754L791.918 403.612L603.415 178.962L597.286 184.104ZM419.81 409.008C419.941 409.118 420.075 409.226 420.209 409.332L425.143 403.034C425.078 402.984 425.015 402.932 424.952 402.88L419.81 409.008ZM482.728 265.161C456.538 296.373 436.205 327.654 424.542 353.074C418.723 365.757 414.962 377.195 413.812 386.554C412.686 395.708 413.938 404.081 419.81 409.008L424.952 402.88C422.306 400.659 420.718 395.937 421.752 387.53C422.76 379.327 426.157 368.738 431.813 356.41C443.101 331.808 462.99 301.129 488.856 270.303L482.728 265.161ZM613.464 178.22C607.593 173.293 599.129 173.514 590.31 176.212C581.293 178.97 570.682 184.66 559.201 192.593C536.193 208.493 508.918 233.949 482.728 265.161L488.856 270.303C514.722 239.477 541.481 214.562 563.749 199.174C574.908 191.463 584.747 186.279 592.65 183.862C600.75 181.384 605.676 182.128 608.322 184.348L613.464 178.22ZM613.852 178.557C613.725 178.443 613.596 178.33 613.464 178.22L608.322 184.348C608.384 184.401 608.446 184.454 608.507 184.509L613.852 178.557ZM608.116 178.962L419.612 403.612L425.74 408.754L614.244 184.104L608.116 178.962ZM639.682 385.1C629.97 401.816 618.147 410.655 606.212 410.655V418.655C622.396 418.655 636.334 406.788 646.599 389.119L639.682 385.1ZM606.212 410.655C594.661 410.655 583.219 402.386 573.673 386.668L566.835 390.821C576.981 407.526 590.546 418.655 606.212 418.655V410.655ZM606.592 468.137C604.115 468.137 601.236 466.836 598.01 463.333C594.787 459.833 591.568 454.489 588.526 447.366C582.452 433.148 577.437 412.696 574.22 388.223L566.288 389.266C569.555 414.119 574.699 435.363 581.169 450.509C584.398 458.068 588.047 464.324 592.125 468.753C596.202 473.179 601.058 476.137 606.592 476.137V468.137ZM639.173 386.604C636.001 411.516 630.975 432.378 624.856 446.897C621.791 454.17 618.54 459.636 615.278 463.218C612.012 466.806 609.095 468.137 606.592 468.137V476.137C612.186 476.137 617.088 473.114 621.194 468.604C625.304 464.089 628.98 457.711 632.228 450.004C638.737 434.56 643.888 412.909 647.109 387.615L639.173 386.604ZM606.412 182.865C606.639 182.867 606.865 182.872 607.091 182.88L607.377 174.885C607.077 174.874 606.777 174.867 606.477 174.865L606.412 182.865ZM606.496 182.865C606.527 182.864 606.559 182.864 606.592 182.864V174.864C606.526 174.864 606.459 174.864 606.392 174.865L606.496 182.865ZM606.592 182.864C606.73 182.864 606.869 182.868 607.006 182.876L607.461 174.889C607.172 174.872 606.882 174.864 606.592 174.864V182.864ZM626.847 173.585C626.847 176.136 625.233 178.999 621.468 181.419C617.746 183.811 612.363 185.422 606.212 185.422V193.422C613.665 193.422 620.6 191.487 625.794 188.148C630.946 184.836 634.847 179.781 634.847 173.585H626.847ZM606.212 185.422C600.06 185.422 594.677 183.811 590.955 181.419C587.191 178.999 585.577 176.136 585.577 173.585H577.577C577.577 179.781 581.478 184.836 586.629 188.148C591.824 191.487 598.758 193.422 606.212 193.422V185.422ZM585.577 173.585C585.577 171.034 587.191 168.172 590.955 165.752C594.677 163.359 600.06 161.748 606.212 161.748V153.748C598.758 153.748 591.824 155.683 586.629 159.022C581.478 162.334 577.577 167.389 577.577 173.585H585.577ZM606.212 161.748C612.363 161.748 617.746 163.359 621.468 165.752C625.233 168.172 626.847 171.034 626.847 173.585H634.847C634.847 167.389 630.946 162.334 625.794 159.022C620.6 155.683 613.665 153.748 606.212 153.748V161.748Z" fill="white" mask="url(#path-1-outside-1_301_926)"/>
<mask id="path-3-outside-2_301_926" maskUnits="userSpaceOnUse" x="413.436" y="112.863" width="385" height="364" fill="black">
<rect fill="white" x="413.436" y="112.863" width="385" height="364"/>
<path d="M646.856 325.5C646.856 406.485 628.829 472.136 606.592 472.136C584.354 472.136 566.327 406.485 566.327 325.5C566.327 244.515 584.354 178.864 606.592 178.864C628.829 178.864 646.856 244.515 646.856 325.5Z"/>
<path d="M636.962 117.863L639.62 119.103L619.416 161.043L617.289 160.052L636.962 117.863Z"/>
<path d="M637.908 122.643L639.62 119.103L649.158 145.516L647.707 146.172L637.908 122.643Z"/>
<path d="M575.328 117.863L572.67 119.103L592.874 161.043L595 160.052L575.328 117.863Z"/>
<path d="M574.424 122.73L572.67 119.103L563.132 145.516L564.583 146.172L574.424 122.73Z"/>
<path fill-rule="evenodd" clip-rule="evenodd" d="M700.649 456.614C700.77 456.575 700.889 456.534 701.008 456.49C721.905 448.885 716.391 381.027 688.692 304.926C660.994 228.825 621.6 173.299 600.703 180.904C600.584 180.948 608.675 188.201 608.558 188.249L605.767 195.92L700.649 456.614Z"/>
<path fill-rule="evenodd" clip-rule="evenodd" d="M510.881 456.614C510.761 456.575 510.641 456.534 510.522 456.49C489.625 448.885 495.139 381.027 522.838 304.926C550.536 228.825 589.93 173.299 610.827 180.904C610.946 180.948 611.064 180.993 611.182 181.04L510.881 456.614Z"/>
<path fill-rule="evenodd" clip-rule="evenodd" d="M748.152 439.085C748.264 439.026 748.375 438.964 748.485 438.901C767.743 427.782 750.529 361.913 710.037 291.778C669.544 221.643 621.107 173.8 601.848 184.919C601.739 184.983 608.665 185.836 608.558 185.902L605.338 191.724L748.152 439.085Z"/>
<path fill-rule="evenodd" clip-rule="evenodd" d="M464.551 435.566C464.439 435.506 464.328 435.445 464.219 435.382C444.96 424.263 462.174 358.393 502.666 288.258C543.159 218.123 591.597 170.281 610.855 181.4C610.965 181.463 611.073 181.529 611.181 181.596L464.551 435.566Z"/>
<path fill-rule="evenodd" clip-rule="evenodd" d="M788.854 406.183C788.954 406.105 789.052 406.025 789.149 405.944C806.184 391.65 777.794 329.77 725.738 267.732C673.682 205.694 617.672 166.99 600.637 181.284C600.54 181.365 600.445 181.448 600.35 181.533L788.854 406.183Z"/>
<path fill-rule="evenodd" clip-rule="evenodd" d="M422.676 406.183C422.576 406.105 422.478 406.025 422.381 405.944C405.346 391.65 433.736 329.77 485.792 267.732C537.848 205.694 593.858 166.99 610.893 181.284C610.99 181.365 611.086 181.448 611.18 181.533L422.676 406.183Z"/>
<path fill-rule="evenodd" clip-rule="evenodd" d="M643.141 387.11C633.152 404.302 620.272 414.655 606.212 414.655C592.603 414.655 580.1 404.956 570.254 388.745C576.739 438.07 590.573 472.136 606.592 472.136C622.787 472.136 636.749 437.315 643.141 387.11ZM607.234 178.882C606.971 178.873 606.708 178.867 606.444 178.865C606.493 178.864 606.542 178.864 606.592 178.864C606.806 178.864 607.02 178.87 607.234 178.882Z"/>
<path d="M630.847 173.585C630.847 182.331 619.817 189.422 606.212 189.422C592.606 189.422 581.577 182.331 581.577 173.585C581.577 164.839 592.606 157.748 606.212 157.748C619.817 157.748 630.847 164.839 630.847 173.585Z"/>
</mask>
<path d="M646.856 325.5C646.856 406.485 628.829 472.136 606.592 472.136C584.354 472.136 566.327 406.485 566.327 325.5C566.327 244.515 584.354 178.864 606.592 178.864C628.829 178.864 646.856 244.515 646.856 325.5Z" fill="#DFDFDF"/>
<path d="M636.962 117.863L639.62 119.103L619.416 161.043L617.289 160.052L636.962 117.863Z" fill="black"/>
<path d="M637.908 122.643L639.62 119.103L649.158 145.516L647.707 146.172L637.908 122.643Z" fill="black"/>
<path d="M575.328 117.863L572.67 119.103L592.874 161.043L595 160.052L575.328 117.863Z" fill="black"/>
<path d="M574.424 122.73L572.67 119.103L563.132 145.516L564.583 146.172L574.424 122.73Z" fill="black"/>
<path fill-rule="evenodd" clip-rule="evenodd" d="M700.649 456.614C700.77 456.575 700.889 456.534 701.008 456.49C721.905 448.885 716.391 381.027 688.692 304.926C660.994 228.825 621.6 173.299 600.703 180.904C600.584 180.948 608.675 188.201 608.558 188.249L605.767 195.92L700.649 456.614Z" fill="black" fill-opacity="0.5"/>
<path fill-rule="evenodd" clip-rule="evenodd" d="M510.881 456.614C510.761 456.575 510.641 456.534 510.522 456.49C489.625 448.885 495.139 381.027 522.838 304.926C550.536 228.825 589.93 173.299 610.827 180.904C610.946 180.948 611.064 180.993 611.182 181.04L510.881 456.614Z" fill="black" fill-opacity="0.5"/>
<path fill-rule="evenodd" clip-rule="evenodd" d="M748.152 439.085C748.264 439.026 748.375 438.964 748.485 438.901C767.743 427.782 750.529 361.913 710.037 291.778C669.544 221.643 621.107 173.8 601.848 184.919C601.739 184.983 608.665 185.836 608.558 185.902L605.338 191.724L748.152 439.085Z" fill="black" fill-opacity="0.75"/>
<path fill-rule="evenodd" clip-rule="evenodd" d="M464.551 435.566C464.439 435.506 464.328 435.445 464.219 435.382C444.96 424.263 462.174 358.393 502.666 288.258C543.159 218.123 591.597 170.281 610.855 181.4C610.965 181.463 611.073 181.529 611.181 181.596L464.551 435.566Z" fill="black" fill-opacity="0.75"/>
<path fill-rule="evenodd" clip-rule="evenodd" d="M788.854 406.183C788.954 406.105 789.052 406.025 789.149 405.944C806.184 391.65 777.794 329.77 725.738 267.732C673.682 205.694 617.672 166.99 600.637 181.284C600.54 181.365 600.445 181.448 600.35 181.533L788.854 406.183Z" fill="black"/>
<path fill-rule="evenodd" clip-rule="evenodd" d="M422.676 406.183C422.576 406.105 422.478 406.025 422.381 405.944C405.346 391.65 433.736 329.77 485.792 267.732C537.848 205.694 593.858 166.99 610.893 181.284C610.99 181.365 611.086 181.448 611.18 181.533L422.676 406.183Z" fill="black"/>
<path fill-rule="evenodd" clip-rule="evenodd" d="M643.141 387.11C633.152 404.302 620.272 414.655 606.212 414.655C592.603 414.655 580.1 404.956 570.254 388.745C576.739 438.07 590.573 472.136 606.592 472.136C622.787 472.136 636.749 437.315 643.141 387.11ZM607.234 178.882C606.971 178.873 606.708 178.867 606.444 178.865C606.493 178.864 606.542 178.864 606.592 178.864C606.806 178.864 607.02 178.87 607.234 178.882Z" fill="#F76A1B"/>
<path d="M630.847 173.585C630.847 182.331 619.817 189.422 606.212 189.422C592.606 189.422 581.577 182.331 581.577 173.585C581.577 164.839 592.606 157.748 606.212 157.748C619.817 157.748 630.847 164.839 630.847 173.585Z" fill="black"/>
<path d="M636.962 117.863L638.652 114.238C637.691 113.79 636.591 113.742 635.594 114.105C634.597 114.467 633.785 115.211 633.337 116.173L636.962 117.863ZM639.62 119.103L643.382 117.744C643.021 116.743 642.275 115.927 641.31 115.477L639.62 119.103ZM619.416 161.043L617.725 164.668C619.709 165.594 622.069 164.752 623.019 162.779L619.416 161.043ZM617.289 160.052L613.664 158.361C612.73 160.363 613.597 162.743 615.599 163.677L617.289 160.052ZM637.908 122.643L634.307 120.901C633.809 121.931 633.776 123.125 634.215 124.18L637.908 122.643ZM649.158 145.516L650.805 149.161C652.708 148.301 653.629 146.122 652.92 144.158L649.158 145.516ZM647.707 146.172L644.014 147.71C644.43 148.709 645.233 149.496 646.239 149.893C647.245 150.29 648.369 150.263 649.354 149.817L647.707 146.172ZM575.328 117.863L578.953 116.173C578.019 114.171 575.639 113.304 573.637 114.238L575.328 117.863ZM572.67 119.103L570.979 115.477C570.015 115.927 569.269 116.743 568.908 117.744L572.67 119.103ZM592.874 161.043L589.27 162.779C590.221 164.752 592.58 165.594 594.565 164.668L592.874 161.043ZM595.001 160.052L596.691 163.677C597.652 163.228 598.396 162.417 598.759 161.42C599.122 160.423 599.074 159.323 598.626 158.361L595.001 160.052ZM574.424 122.73L578.112 124.278C578.556 123.22 578.524 122.022 578.025 120.988L574.424 122.73ZM563.132 145.516L559.37 144.158C558.66 146.122 559.581 148.301 561.484 149.161L563.132 145.516ZM564.583 146.172L562.935 149.817C563.919 150.262 565.041 150.29 566.046 149.895C567.051 149.5 567.853 148.716 568.271 147.721L564.583 146.172ZM701.008 456.49L702.376 460.249L701.008 456.49ZM700.649 456.614L696.89 457.982C697.628 460.009 699.84 461.086 701.89 460.417L700.649 456.614ZM600.703 180.904L602.071 184.663L600.703 180.904ZM608.558 188.249L607.064 184.538C606.011 184.962 605.187 185.814 604.799 186.881L608.558 188.249ZM605.767 195.92L602.008 194.552C601.687 195.436 601.687 196.404 602.008 197.288L605.767 195.92ZM510.522 456.49L509.154 460.249L510.522 456.49ZM510.881 456.614L509.64 460.417C511.69 461.086 513.902 460.009 514.64 457.982L510.881 456.614ZM610.827 180.904L609.459 184.663L610.827 180.904ZM611.182 181.04L614.94 182.408C615.678 180.382 614.676 178.135 612.675 177.33L611.182 181.04ZM748.485 438.901L750.485 442.365L748.485 438.901ZM748.152 439.085L744.688 441.085C745.767 442.953 748.132 443.63 750.035 442.615L748.152 439.085ZM601.848 184.919L603.848 188.383L601.848 184.919ZM608.558 185.902L606.443 182.508C605.864 182.868 605.387 183.37 605.058 183.967L608.558 185.902ZM605.338 191.724L601.838 189.788C601.159 191.015 601.173 192.509 601.874 193.724L605.338 191.724ZM464.219 435.382L462.219 438.846L464.219 435.382ZM464.551 435.566L462.669 439.095C464.572 440.11 466.937 439.434 468.015 437.566L464.551 435.566ZM610.855 181.4L608.855 184.864L610.855 181.4ZM611.181 181.596L614.645 183.596C615.723 181.728 615.127 179.341 613.296 178.201L611.181 181.596ZM789.149 405.944L786.578 402.88L789.149 405.944ZM788.854 406.183L785.79 408.754C787.176 410.406 789.623 410.662 791.321 409.332L788.854 406.183ZM600.637 181.284L598.066 178.22L600.637 181.284ZM600.35 181.533L597.678 178.557C596.073 179.998 595.9 182.452 597.286 184.104L600.35 181.533ZM422.381 405.944L424.952 402.88L422.381 405.944ZM422.676 406.183L420.209 409.332C421.907 410.662 424.354 410.406 425.74 408.754L422.676 406.183ZM610.893 181.284L613.464 178.22L610.893 181.284ZM611.18 181.533L614.244 184.104C615.63 182.452 615.457 179.998 613.852 178.557L611.18 181.533ZM643.141 387.11L647.109 387.615C647.349 385.727 646.226 383.931 644.424 383.321C642.621 382.711 640.638 383.455 639.682 385.1L643.141 387.11ZM570.254 388.745L573.673 386.668C572.691 385.052 570.711 384.344 568.926 384.971C567.142 385.599 566.041 387.391 566.288 389.266L570.254 388.745ZM606.444 178.865L606.392 174.865C604.2 174.894 602.439 176.682 602.444 178.875C602.45 181.067 604.219 182.847 606.412 182.865L606.444 178.865ZM607.234 178.882L607.091 182.88C609.282 182.958 611.128 181.258 611.23 179.067C611.331 176.877 609.65 175.013 607.461 174.889L607.234 178.882ZM642.856 325.5C642.856 365.74 638.373 402.027 631.206 428.129C627.614 441.208 623.41 451.503 618.909 458.435C614.297 465.54 610.046 468.137 606.592 468.137V476.137C614.256 476.137 620.597 470.527 625.619 462.791C630.754 454.883 635.225 443.703 638.92 430.247C646.326 403.277 650.856 366.245 650.856 325.5H642.856ZM606.592 468.137C603.137 468.137 598.886 465.54 594.274 458.435C589.773 451.503 585.569 441.208 581.977 428.129C574.81 402.027 570.327 365.74 570.327 325.5H562.327C562.327 366.245 566.857 403.277 574.263 430.247C577.958 443.703 582.429 454.883 587.564 462.791C592.586 470.527 598.927 476.137 606.592 476.137V468.137ZM570.327 325.5C570.327 285.26 574.81 248.974 581.977 222.872C585.569 209.792 589.773 199.497 594.274 192.565C598.886 185.461 603.137 182.864 606.592 182.864V174.864C598.927 174.864 592.586 180.474 587.564 188.209C582.429 196.118 577.958 207.297 574.263 220.754C566.857 247.723 562.327 284.755 562.327 325.5H570.327ZM606.592 182.864C610.046 182.864 614.297 185.461 618.909 192.565C623.41 199.497 627.614 209.792 631.206 222.872C638.373 248.974 642.856 285.26 642.856 325.5H650.856C650.856 284.755 646.326 247.723 638.92 220.754C635.225 207.297 630.754 196.118 625.619 188.209C620.597 180.474 614.256 174.864 606.592 174.864V182.864ZM635.271 121.489L637.929 122.728L641.31 115.477L638.652 114.238L635.271 121.489ZM636.016 117.367L615.812 159.307L623.019 162.779L643.224 120.839L636.016 117.367ZM621.106 157.418L618.98 156.426L615.599 163.677L617.725 164.668L621.106 157.418ZM620.914 161.742L640.587 119.554L633.337 116.173L613.664 158.361L620.914 161.742ZM641.509 124.384L643.221 120.844L636.019 117.361L634.307 120.901L641.509 124.384ZM635.858 120.461L645.396 146.875L652.92 144.158L643.382 117.744L635.858 120.461ZM647.511 141.871L646.06 142.527L649.354 149.817L650.805 149.161L647.511 141.871ZM651.4 144.634L641.601 121.105L634.215 124.18L644.014 147.71L651.4 144.634ZM573.637 114.238L570.979 115.477L574.36 122.728L577.018 121.489L573.637 114.238ZM569.066 120.839L589.27 162.779L596.478 159.307L576.273 117.367L569.066 120.839ZM594.565 164.668L596.691 163.677L593.31 156.426L591.184 157.418L594.565 164.668ZM598.626 158.361L578.953 116.173L571.703 119.554L591.375 161.742L598.626 158.361ZM578.025 120.988L576.271 117.361L569.069 120.844L570.823 124.471L578.025 120.988ZM568.908 117.744L559.37 144.158L566.894 146.875L576.432 120.461L568.908 117.744ZM561.484 149.161L562.935 149.817L566.23 142.527L564.779 141.871L561.484 149.161ZM568.271 147.721L578.112 124.278L570.736 121.182L560.895 144.624L568.271 147.721ZM699.64 452.732C699.563 452.76 699.486 452.786 699.408 452.812L701.89 460.417C702.053 460.364 702.215 460.308 702.376 460.249L699.64 452.732ZM684.934 306.294C698.697 344.108 706.894 379.739 709.087 406.718C710.185 420.237 709.755 431.349 707.897 439.402C705.993 447.656 702.886 451.55 699.64 452.732L702.376 460.249C709.579 457.628 713.619 450.188 715.692 441.201C717.812 432.013 718.191 419.979 717.06 406.07C714.795 378.194 706.387 341.846 692.451 303.558L684.934 306.294ZM602.071 184.663C605.317 183.482 610.2 184.468 616.964 189.567C623.564 194.541 631.036 202.777 638.885 213.84C654.547 235.916 671.171 268.481 684.934 306.294L692.451 303.558C678.516 265.27 661.593 232.021 645.409 209.211C637.335 197.83 629.309 188.854 621.78 183.178C614.415 177.627 606.538 174.524 599.335 177.146L602.071 184.663ZM610.052 191.959C610.86 191.634 611.633 191.011 612.111 190.087C612.546 189.247 612.58 188.462 612.551 187.998C612.5 187.167 612.196 186.573 612.132 186.445C611.94 186.064 611.726 185.797 611.692 185.754C611.56 185.585 611.434 185.453 611.392 185.408C611.276 185.286 611.143 185.156 611.03 185.047C610.79 184.813 610.458 184.503 610.085 184.156C609.332 183.457 608.324 182.534 607.331 181.625C606.33 180.709 605.346 179.807 604.618 179.132C604.251 178.791 603.97 178.527 603.791 178.354C603.694 178.261 603.665 178.23 603.674 178.24C603.68 178.246 603.697 178.264 603.721 178.291C603.741 178.313 603.793 178.372 603.858 178.454C603.879 178.481 604.088 178.738 604.277 179.113C604.336 179.232 604.651 179.841 604.696 180.696C604.722 181.177 604.675 181.99 604.199 182.847C603.68 183.783 602.87 184.373 602.071 184.663L599.335 177.146C598.536 177.437 597.725 178.027 597.205 178.964C596.729 179.822 596.682 180.635 596.707 181.117C596.753 181.975 597.069 182.587 597.131 182.71C597.324 183.094 597.54 183.362 597.573 183.404C597.705 183.571 597.83 183.704 597.872 183.747C597.987 183.868 598.119 183.998 598.232 184.107C598.472 184.339 598.802 184.649 599.175 184.995C599.928 185.694 600.936 186.617 601.929 187.525C602.929 188.441 603.914 189.343 604.641 190.018C605.008 190.359 605.289 190.623 605.468 190.796C605.565 190.89 605.594 190.92 605.584 190.909C605.578 190.903 605.561 190.885 605.536 190.858C605.516 190.835 605.464 190.776 605.399 190.694C605.377 190.665 605.171 190.41 604.983 190.037C604.921 189.914 604.618 189.324 604.567 188.494C604.538 188.031 604.572 187.248 605.007 186.408C605.485 185.486 606.256 184.863 607.064 184.538L610.052 191.959ZM604.799 186.881L602.008 194.552L609.526 197.287L612.317 189.616L604.799 186.881ZM602.008 197.288L696.89 457.982L704.408 455.246L609.526 194.552L602.008 197.288ZM509.154 460.249C509.315 460.308 509.477 460.364 509.64 460.417L512.122 452.812C512.044 452.786 511.967 452.76 511.89 452.732L509.154 460.249ZM519.079 303.558C505.143 341.846 496.735 378.194 494.47 406.07C493.34 419.979 493.718 432.013 495.838 441.201C497.911 450.188 501.951 457.628 509.154 460.249L511.89 452.732C508.644 451.55 505.537 447.656 503.633 439.402C501.775 431.349 501.345 420.237 502.443 406.718C504.636 379.739 512.834 344.108 526.597 306.294L519.079 303.558ZM612.195 177.146C604.993 174.524 597.115 177.627 589.75 183.178C582.221 188.854 574.195 197.83 566.121 209.211C549.937 232.021 533.015 265.27 519.079 303.558L526.597 306.294C540.359 268.481 556.983 235.916 572.645 213.84C580.494 202.777 587.966 194.541 594.566 189.567C601.33 184.468 606.213 183.482 609.459 184.663L612.195 177.146ZM612.675 177.33C612.516 177.266 612.356 177.204 612.195 177.146L609.459 184.663C609.536 184.691 609.612 184.721 609.688 184.751L612.675 177.33ZM607.423 179.672L507.122 455.246L514.64 457.982L614.94 182.408L607.423 179.672ZM746.485 435.437C746.413 435.478 746.342 435.517 746.27 435.556L750.035 442.615C750.186 442.534 750.336 442.451 750.485 442.365L746.485 435.437ZM706.573 293.778C726.693 328.627 740.953 362.293 747.797 388.482C751.227 401.605 752.733 412.623 752.301 420.876C751.859 429.335 749.476 433.71 746.485 435.437L750.485 442.365C757.122 438.533 759.809 430.504 760.291 421.294C760.783 411.877 759.066 399.96 755.537 386.459C748.466 359.4 733.873 325.064 713.501 289.778L706.573 293.778ZM603.848 188.383C606.84 186.656 611.82 186.78 619.367 190.626C626.73 194.379 635.519 201.193 645.169 210.724C664.427 229.745 686.453 258.929 706.573 293.778L713.501 289.778C693.129 254.492 670.689 224.686 650.791 205.032C640.862 195.226 631.4 187.781 623 183.499C614.783 179.31 606.486 177.623 599.848 181.455L603.848 188.383ZM610.673 189.297C611.13 189.013 612.602 187.925 612.558 185.817C612.521 184.009 611.343 183.013 611.123 182.83C610.752 182.519 610.41 182.35 610.284 182.29C610.119 182.211 609.982 182.159 609.901 182.13C609.633 182.033 609.401 181.984 609.365 181.976C609.211 181.942 609.054 181.915 608.954 181.898C608.726 181.86 608.426 181.816 608.105 181.77C607.453 181.677 606.583 181.559 605.736 181.445C604.878 181.33 604.043 181.217 603.429 181.13C603.116 181.086 602.893 181.052 602.761 181.031C602.682 181.017 602.698 181.019 602.759 181.032C602.78 181.036 602.822 181.046 602.877 181.06C602.921 181.071 603.037 181.102 603.185 181.154C603.259 181.18 603.39 181.228 603.55 181.303C603.668 181.359 604.012 181.524 604.388 181.832C604.587 181.996 605.864 183.042 605.847 184.957C605.827 187.13 604.232 188.162 603.848 188.383L599.848 181.455C599.463 181.678 597.867 182.71 597.847 184.885C597.83 186.801 599.108 187.848 599.309 188.013C599.686 188.323 600.032 188.49 600.155 188.547C600.317 188.623 600.453 188.673 600.532 188.701C600.794 188.793 601.02 188.841 601.054 188.848C601.205 188.881 601.359 188.907 601.458 188.924C601.684 188.961 601.982 189.005 602.302 189.05C602.953 189.143 603.822 189.26 604.668 189.374C605.526 189.489 606.361 189.602 606.974 189.689C607.286 189.734 607.508 189.767 607.638 189.789C607.717 189.802 607.698 189.801 607.633 189.786C607.611 189.781 607.567 189.771 607.51 189.756C607.465 189.744 607.346 189.712 607.195 189.658C607.119 189.631 606.985 189.58 606.825 189.503C606.702 189.444 606.362 189.277 605.992 188.968C605.774 188.786 604.598 187.791 604.56 185.984C604.516 183.878 605.988 182.791 606.443 182.508L610.673 189.297ZM605.058 183.967L601.838 189.788L608.839 193.66L612.058 187.838L605.058 183.967ZM601.874 193.724L744.688 441.085L751.617 437.085L608.802 189.724L601.874 193.724ZM462.219 438.846C462.367 438.931 462.517 439.014 462.669 439.095L466.433 432.036C466.361 431.998 466.29 431.959 466.219 431.917L462.219 438.846ZM499.202 286.258C478.83 321.544 464.237 355.88 457.166 382.94C453.638 396.441 451.921 408.358 452.413 417.774C452.894 426.985 455.581 435.013 462.219 438.846L466.219 431.917C463.227 430.19 460.844 425.816 460.402 417.357C459.97 409.104 461.477 398.085 464.906 384.962C471.75 358.774 486.01 325.107 506.13 290.258L499.202 286.258ZM612.855 177.936C606.217 174.104 597.921 175.791 589.704 179.979C581.303 184.261 571.841 191.707 561.913 201.513C542.014 221.167 519.575 250.972 499.202 286.258L506.13 290.258C526.251 255.409 548.276 226.226 567.534 207.205C577.184 197.673 585.973 190.86 593.337 187.107C600.883 183.26 605.864 183.137 608.855 184.864L612.855 177.936ZM613.296 178.201C613.151 178.11 613.004 178.022 612.855 177.936L608.855 184.864C608.926 184.905 608.996 184.947 609.065 184.99L613.296 178.201ZM607.717 179.596L461.087 433.566L468.015 437.566L614.645 183.596L607.717 179.596ZM786.578 402.88C786.515 402.932 786.452 402.984 786.388 403.034L791.321 409.332C791.456 409.226 791.589 409.118 791.72 409.008L786.578 402.88ZM722.674 270.303C748.54 301.129 768.43 331.808 779.717 356.41C785.373 368.738 788.77 379.327 789.778 387.53C790.812 395.937 789.224 400.659 786.578 402.88L791.72 409.008C797.592 404.081 798.844 395.708 797.718 386.554C796.568 377.195 792.807 365.757 786.988 353.074C775.326 327.654 754.992 296.373 728.802 265.161L722.674 270.303ZM603.208 184.348C605.854 182.128 610.78 181.384 618.88 183.862C626.783 186.279 636.622 191.463 647.781 199.174C670.049 214.562 696.808 239.477 722.674 270.303L728.802 265.161C702.612 233.949 675.338 208.493 652.329 192.593C640.848 184.66 630.237 178.97 621.221 176.212C612.401 173.514 603.938 173.293 598.066 178.22L603.208 184.348ZM603.023 184.509C603.084 184.454 603.146 184.401 603.208 184.348L598.066 178.22C597.935 178.33 597.805 178.443 597.678 178.557L603.023 184.509ZM597.286 184.104L785.79 408.754L791.918 403.612L603.415 178.962L597.286 184.104ZM419.81 409.008C419.941 409.118 420.075 409.226 420.209 409.332L425.143 403.034C425.078 402.984 425.015 402.932 424.952 402.88L419.81 409.008ZM482.728 265.161C456.538 296.373 436.205 327.654 424.542 353.074C418.723 365.757 414.962 377.195 413.812 386.554C412.686 395.708 413.938 404.081 419.81 409.008L424.952 402.88C422.306 400.659 420.718 395.937 421.752 387.53C422.76 379.327 426.157 368.738 431.813 356.41C443.101 331.808 462.99 301.129 488.856 270.303L482.728 265.161ZM613.464 178.22C607.593 173.293 599.129 173.514 590.31 176.212C581.293 178.97 570.682 184.66 559.201 192.593C536.193 208.493 508.918 233.949 482.728 265.161L488.856 270.303C514.722 239.477 541.481 214.562 563.749 199.174C574.908 191.463 584.747 186.279 592.65 183.862C600.75 181.384 605.676 182.128 608.322 184.348L613.464 178.22ZM613.852 178.557C613.725 178.443 613.596 178.33 613.464 178.22L608.322 184.348C608.384 184.401 608.446 184.454 608.507 184.509L613.852 178.557ZM608.116 178.962L419.612 403.612L425.74 408.754L614.244 184.104L608.116 178.962ZM639.682 385.1C629.97 401.816 618.147 410.655 606.212 410.655V418.655C622.396 418.655 636.334 406.788 646.599 389.119L639.682 385.1ZM606.212 410.655C594.661 410.655 583.219 402.386 573.673 386.668L566.835 390.821C576.981 407.526 590.546 418.655 606.212 418.655V410.655ZM606.592 468.137C604.115 468.137 601.236 466.836 598.01 463.333C594.787 459.833 591.568 454.489 588.526 447.366C582.452 433.148 577.437 412.696 574.22 388.223L566.288 389.266C569.555 414.119 574.699 435.363 581.169 450.509C584.398 458.068 588.047 464.324 592.125 468.753C596.202 473.179 601.058 476.137 606.592 476.137V468.137ZM639.173 386.604C636.001 411.516 630.975 432.378 624.856 446.897C621.791 454.17 618.54 459.636 615.278 463.218C612.012 466.806 609.095 468.137 606.592 468.137V476.137C612.186 476.137 617.088 473.114 621.194 468.604C625.304 464.089 628.98 457.711 632.228 450.004C638.737 434.56 643.888 412.909 647.109 387.615L639.173 386.604ZM606.412 182.865C606.639 182.867 606.865 182.872 607.091 182.88L607.377 174.885C607.077 174.874 606.777 174.867 606.477 174.865L606.412 182.865ZM606.496 182.865C606.527 182.864 606.559 182.864 606.592 182.864V174.864C606.526 174.864 606.459 174.864 606.392 174.865L606.496 182.865ZM606.592 182.864C606.73 182.864 606.869 182.868 607.006 182.876L607.461 174.889C607.172 174.872 606.882 174.864 606.592 174.864V182.864ZM626.847 173.585C626.847 176.136 625.233 178.999 621.468 181.419C617.746 183.811 612.363 185.422 606.212 185.422V193.422C613.665 193.422 620.6 191.487 625.794 188.148C630.946 184.836 634.847 179.781 634.847 173.585H626.847ZM606.212 185.422C600.06 185.422 594.677 183.811 590.955 181.419C587.191 178.999 585.577 176.136 585.577 173.585H577.577C577.577 179.781 581.478 184.836 586.629 188.148C591.824 191.487 598.758 193.422 606.212 193.422V185.422ZM585.577 173.585C585.577 171.034 587.191 168.172 590.955 165.752C594.677 163.359 600.06 161.748 606.212 161.748V153.748C598.758 153.748 591.824 155.683 586.629 159.022C581.478 162.334 577.577 167.389 577.577 173.585H585.577ZM606.212 161.748C612.363 161.748 617.746 163.359 621.468 165.752C625.233 168.172 626.847 171.034 626.847 173.585H634.847C634.847 167.389 630.946 162.334 625.794 159.022C620.6 155.683 613.665 153.748 606.212 153.748V161.748Z" fill="white" mask="url(#path-3-outside-2_301_926)"/>
<rect x="160.726" y="125.896" width="3" height="3" fill="#F76A1B"/>
<rect x="160.726" y="125.896" width="3" height="3" fill="black" fill-opacity="0.5"/>
<mask id="path-6-outside-3_301_926" maskUnits="userSpaceOnUse" x="159.726" y="84.8965" width="5" height="42" fill="black">
<rect fill="white" x="159.726" y="84.8965" width="5" height="42"/>
<path d="M162.173 85.8965L163.726 125.896H160.726L162.173 85.8965Z"/>
</mask>
<path d="M162.173 85.8965L163.726 125.896H160.726L162.173 85.8965Z" fill="#F76A1B"/>
<path d="M162.173 85.8965L163.726 125.896H160.726L162.173 85.8965Z" fill="black" fill-opacity="0.5"/>
<path d="M162.173 85.8965L163.726 125.896H160.726L162.173 85.8965Z" stroke="#F76A1B" mask="url(#path-6-outside-3_301_926)"/>
<path d="M162.173 85.8965L163.726 125.896H160.726L162.173 85.8965Z" stroke="black" stroke-opacity="0.5" mask="url(#path-6-outside-3_301_926)"/>
<mask id="path-7-outside-4_301_926" maskUnits="userSpaceOnUse" x="159.726" y="127.896" width="5" height="42" fill="black">
<rect fill="white" x="159.726" y="127.896" width="5" height="42"/>
<path d="M162.173 168.896L163.726 128.896H160.726L162.173 168.896Z"/>
</mask>
<path d="M162.173 168.896L163.726 128.896H160.726L162.173 168.896Z" fill="#F76A1B"/>
<path d="M162.173 168.896L163.726 128.896H160.726L162.173 168.896Z" fill="black" fill-opacity="0.5"/>
<path d="M162.173 168.896L163.726 128.896H160.726L162.173 168.896Z" stroke="#F76A1B" mask="url(#path-7-outside-4_301_926)"/>
<path d="M162.173 168.896L163.726 128.896H160.726L162.173 168.896Z" stroke="black" stroke-opacity="0.5" mask="url(#path-7-outside-4_301_926)"/>
<mask id="path-8-outside-5_301_926" maskUnits="userSpaceOnUse" x="162.726" y="124.792" width="42" height="5" fill="black">
<rect fill="white" x="162.726" y="124.792" width="42" height="5"/>
<path d="M203.726 127.344L163.726 125.792V128.792L203.726 127.344Z"/>
</mask>
<path d="M203.726 127.344L163.726 125.792V128.792L203.726 127.344Z" fill="#F76A1B"/>
<path d="M203.726 127.344L163.726 125.792V128.792L203.726 127.344Z" fill="black" fill-opacity="0.5"/>
<path d="M203.726 127.344L163.726 125.792V128.792L203.726 127.344Z" stroke="#F76A1B" mask="url(#path-8-outside-5_301_926)"/>
<path d="M203.726 127.344L163.726 125.792V128.792L203.726 127.344Z" stroke="black" stroke-opacity="0.5" mask="url(#path-8-outside-5_301_926)"/>
<mask id="path-9-outside-6_301_926" maskUnits="userSpaceOnUse" x="119.726" y="124.792" width="42" height="5" fill="black">
<rect fill="white" x="119.726" y="124.792" width="42" height="5"/>
<path d="M120.726 127.344L160.726 125.792V128.792L120.726 127.344Z"/>
</mask>
<path d="M120.726 127.344L160.726 125.792V128.792L120.726 127.344Z" fill="#F76A1B"/>
<path d="M120.726 127.344L160.726 125.792V128.792L120.726 127.344Z" fill="black" fill-opacity="0.5"/>
<path d="M120.726 127.344L160.726 125.792V128.792L120.726 127.344Z" stroke="#F76A1B" mask="url(#path-9-outside-6_301_926)"/>
<path d="M120.726 127.344L160.726 125.792V128.792L120.726 127.344Z" stroke="black" stroke-opacity="0.5" mask="url(#path-9-outside-6_301_926)"/>
<rect x="228.726" y="160.631" width="3" height="3" fill="#F76A1B"/>
<rect x="228.726" y="160.631" width="3" height="3" fill="black" fill-opacity="0.5"/>
<mask id="path-11-outside-7_301_926" maskUnits="userSpaceOnUse" x="227.726" y="119.631" width="5" height="42" fill="black">
<rect fill="white" x="227.726" y="119.631" width="5" height="42"/>
<path d="M230.173 120.631L231.726 160.631H228.726L230.173 120.631Z"/>
</mask>
<path d="M230.173 120.631L231.726 160.631H228.726L230.173 120.631Z" fill="#F76A1B"/>
<path d="M230.173 120.631L231.726 160.631H228.726L230.173 120.631Z" fill="black" fill-opacity="0.5"/>
<path d="M230.173 120.631L231.726 160.631H228.726L230.173 120.631Z" stroke="#F76A1B" mask="url(#path-11-outside-7_301_926)"/>
<path d="M230.173 120.631L231.726 160.631H228.726L230.173 120.631Z" stroke="black" stroke-opacity="0.5" mask="url(#path-11-outside-7_301_926)"/>
<mask id="path-12-outside-8_301_926" maskUnits="userSpaceOnUse" x="227.726" y="162.631" width="5" height="42" fill="black">
<rect fill="white" x="227.726" y="162.631" width="5" height="42"/>
<path d="M230.173 203.631L231.726 163.631H228.726L230.173 203.631Z"/>
</mask>
<path d="M230.173 203.631L231.726 163.631H228.726L230.173 203.631Z" fill="#F76A1B"/>
<path d="M230.173 203.631L231.726 163.631H228.726L230.173 203.631Z" fill="black" fill-opacity="0.5"/>
<path d="M230.173 203.631L231.726 163.631H228.726L230.173 203.631Z" stroke="#F76A1B" mask="url(#path-12-outside-8_301_926)"/>
<path d="M230.173 203.631L231.726 163.631H228.726L230.173 203.631Z" stroke="black" stroke-opacity="0.5" mask="url(#path-12-outside-8_301_926)"/>
<mask id="path-13-outside-9_301_926" maskUnits="userSpaceOnUse" x="230.726" y="159.527" width="42" height="5" fill="black">
<rect fill="white" x="230.726" y="159.527" width="42" height="5"/>
<path d="M271.726 162.079L231.726 160.527V163.527L271.726 162.079Z"/>
</mask>
<path d="M271.726 162.079L231.726 160.527V163.527L271.726 162.079Z" fill="#F76A1B"/>
<path d="M271.726 162.079L231.726 160.527V163.527L271.726 162.079Z" fill="black" fill-opacity="0.5"/>
<path d="M271.726 162.079L231.726 160.527V163.527L271.726 162.079Z" stroke="#F76A1B" mask="url(#path-13-outside-9_301_926)"/>
<path d="M271.726 162.079L231.726 160.527V163.527L271.726 162.079Z" stroke="black" stroke-opacity="0.5" mask="url(#path-13-outside-9_301_926)"/>
<mask id="path-14-outside-10_301_926" maskUnits="userSpaceOnUse" x="187.726" y="159.527" width="42" height="5" fill="black">
<rect fill="white" x="187.726" y="159.527" width="42" height="5"/>
<path d="M188.726 162.079L228.726 160.527V163.527L188.726 162.079Z"/>
</mask>
<path d="M188.726 162.079L228.726 160.527V163.527L188.726 162.079Z" fill="#F76A1B"/>
<path d="M188.726 162.079L228.726 160.527V163.527L188.726 162.079Z" fill="black" fill-opacity="0.5"/>
<path d="M188.726 162.079L228.726 160.527V163.527L188.726 162.079Z" stroke="#F76A1B" mask="url(#path-14-outside-10_301_926)"/>
<path d="M188.726 162.079L228.726 160.527V163.527L188.726 162.079Z" stroke="black" stroke-opacity="0.5" mask="url(#path-14-outside-10_301_926)"/>
<rect x="174.726" y="207.495" width="3" height="3" fill="#F76A1B"/>
<rect x="174.726" y="207.495" width="3" height="3" fill="black" fill-opacity="0.5"/>
<mask id="path-16-outside-11_301_926" maskUnits="userSpaceOnUse" x="173.726" y="166.495" width="5" height="42" fill="black">
<rect fill="white" x="173.726" y="166.495" width="5" height="42"/>
<path d="M176.173 167.495L177.726 207.495H174.726L176.173 167.495Z"/>
</mask>
<path d="M176.173 167.495L177.726 207.495H174.726L176.173 167.495Z" fill="#F76A1B"/>
<path d="M176.173 167.495L177.726 207.495H174.726L176.173 167.495Z" fill="black" fill-opacity="0.5"/>
<path d="M176.173 167.495L177.726 207.495H174.726L176.173 167.495Z" stroke="#F76A1B" mask="url(#path-16-outside-11_301_926)"/>
<path d="M176.173 167.495L177.726 207.495H174.726L176.173 167.495Z" stroke="black" stroke-opacity="0.5" mask="url(#path-16-outside-11_301_926)"/>
<mask id="path-17-outside-12_301_926" maskUnits="userSpaceOnUse" x="173.726" y="209.495" width="5" height="42" fill="black">
<rect fill="white" x="173.726" y="209.495" width="5" height="42"/>
<path d="M176.173 250.495L177.726 210.495H174.726L176.173 250.495Z"/>
</mask>
<path d="M176.173 250.495L177.726 210.495H174.726L176.173 250.495Z" fill="#F76A1B"/>
<path d="M176.173 250.495L177.726 210.495H174.726L176.173 250.495Z" fill="black" fill-opacity="0.5"/>
<path d="M176.173 250.495L177.726 210.495H174.726L176.173 250.495Z" stroke="#F76A1B" mask="url(#path-17-outside-12_301_926)"/>
<path d="M176.173 250.495L177.726 210.495H174.726L176.173 250.495Z" stroke="black" stroke-opacity="0.5" mask="url(#path-17-outside-12_301_926)"/>
<mask id="path-18-outside-13_301_926" maskUnits="userSpaceOnUse" x="176.726" y="206.39" width="42" height="5" fill="black">
<rect fill="white" x="176.726" y="206.39" width="42" height="5"/>
<path d="M217.726 208.942L177.726 207.39V210.39L217.726 208.942Z"/>
</mask>
<path d="M217.726 208.942L177.726 207.39V210.39L217.726 208.942Z" fill="#F76A1B"/>
<path d="M217.726 208.942L177.726 207.39V210.39L217.726 208.942Z" fill="black" fill-opacity="0.5"/>
<path d="M217.726 208.942L177.726 207.39V210.39L217.726 208.942Z" stroke="#F76A1B" mask="url(#path-18-outside-13_301_926)"/>
<path d="M217.726 208.942L177.726 207.39V210.39L217.726 208.942Z" stroke="black" stroke-opacity="0.5" mask="url(#path-18-outside-13_301_926)"/>
<mask id="path-19-outside-14_301_926" maskUnits="userSpaceOnUse" x="133.726" y="206.39" width="42" height="5" fill="black">
<rect fill="white" x="133.726" y="206.39" width="42" height="5"/>
<path d="M134.726 208.942L174.726 207.39V210.39L134.726 208.942Z"/>
</mask>
<path d="M134.726 208.942L174.726 207.39V210.39L134.726 208.942Z" fill="#F76A1B"/>
<path d="M134.726 208.942L174.726 207.39V210.39L134.726 208.942Z" fill="black" fill-opacity="0.5"/>
<path d="M134.726 208.942L174.726 207.39V210.39L134.726 208.942Z" stroke="#F76A1B" mask="url(#path-19-outside-14_301_926)"/>
<path d="M134.726 208.942L174.726 207.39V210.39L134.726 208.942Z" stroke="black" stroke-opacity="0.5" mask="url(#path-19-outside-14_301_926)"/>
<rect x="316.726" y="372.896" width="3" height="3" fill="#F76A1B"/>
<rect x="316.726" y="372.896" width="3" height="3" fill="black" fill-opacity="0.5"/>
<mask id="path-21-outside-15_301_926" maskUnits="userSpaceOnUse" x="315.726" y="331.896" width="5" height="42" fill="black">
<rect fill="white" x="315.726" y="331.896" width="5" height="42"/>
<path d="M318.173 332.896L319.726 372.896H316.726L318.173 332.896Z"/>
</mask>
<path d="M318.173 332.896L319.726 372.896H316.726L318.173 332.896Z" fill="#F76A1B"/>
<path d="M318.173 332.896L319.726 372.896H316.726L318.173 332.896Z" fill="black" fill-opacity="0.5"/>
<path d="M318.173 332.896L319.726 372.896H316.726L318.173 332.896Z" stroke="#F76A1B" mask="url(#path-21-outside-15_301_926)"/>
<path d="M318.173 332.896L319.726 372.896H316.726L318.173 332.896Z" stroke="black" stroke-opacity="0.5" mask="url(#path-21-outside-15_301_926)"/>
<mask id="path-22-outside-16_301_926" maskUnits="userSpaceOnUse" x="315.726" y="374.896" width="5" height="42" fill="black">
<rect fill="white" x="315.726" y="374.896" width="5" height="42"/>
<path d="M318.173 415.896L319.726 375.896H316.726L318.173 415.896Z"/>
</mask>
<path d="M318.173 415.896L319.726 375.896H316.726L318.173 415.896Z" fill="#F76A1B"/>
<path d="M318.173 415.896L319.726 375.896H316.726L318.173 415.896Z" fill="black" fill-opacity="0.5"/>
<path d="M318.173 415.896L319.726 375.896H316.726L318.173 415.896Z" stroke="#F76A1B" mask="url(#path-22-outside-16_301_926)"/>
<path d="M318.173 415.896L319.726 375.896H316.726L318.173 415.896Z" stroke="black" stroke-opacity="0.5" mask="url(#path-22-outside-16_301_926)"/>
<mask id="path-23-outside-17_301_926" maskUnits="userSpaceOnUse" x="318.726" y="371.792" width="42" height="5" fill="black">
<rect fill="white" x="318.726" y="371.792" width="42" height="5"/>
<path d="M359.726 374.344L319.726 372.792V375.792L359.726 374.344Z"/>
</mask>
<path d="M359.726 374.344L319.726 372.792V375.792L359.726 374.344Z" fill="#F76A1B"/>
<path d="M359.726 374.344L319.726 372.792V375.792L359.726 374.344Z" fill="black" fill-opacity="0.5"/>
<path d="M359.726 374.344L319.726 372.792V375.792L359.726 374.344Z" stroke="#F76A1B" mask="url(#path-23-outside-17_301_926)"/>
<path d="M359.726 374.344L319.726 372.792V375.792L359.726 374.344Z" stroke="black" stroke-opacity="0.5" mask="url(#path-23-outside-17_301_926)"/>
<mask id="path-24-outside-18_301_926" maskUnits="userSpaceOnUse" x="275.726" y="371.792" width="42" height="5" fill="black">
<rect fill="white" x="275.726" y="371.792" width="42" height="5"/>
<path d="M276.726 374.344L316.726 372.792V375.792L276.726 374.344Z"/>
</mask>
<path d="M276.726 374.344L316.726 372.792V375.792L276.726 374.344Z" fill="#F76A1B"/>
<path d="M276.726 374.344L316.726 372.792V375.792L276.726 374.344Z" fill="black" fill-opacity="0.5"/>
<path d="M276.726 374.344L316.726 372.792V375.792L276.726 374.344Z" stroke="#F76A1B" mask="url(#path-24-outside-18_301_926)"/>
<path d="M276.726 374.344L316.726 372.792V375.792L276.726 374.344Z" stroke="black" stroke-opacity="0.5" mask="url(#path-24-outside-18_301_926)"/>
<rect x="248.401" y="403.896" width="3" height="3" fill="#F76A1B"/>
<rect x="248.401" y="403.896" width="3" height="3" fill="black" fill-opacity="0.5"/>
<mask id="path-26-outside-19_301_926" maskUnits="userSpaceOnUse" x="247.401" y="362.896" width="5" height="42" fill="black">
<rect fill="white" x="247.401" y="362.896" width="5" height="42"/>
<path d="M249.849 363.896L251.401 403.896H248.401L249.849 363.896Z"/>
</mask>
<path d="M249.849 363.896L251.401 403.896H248.401L249.849 363.896Z" fill="#F76A1B"/>
<path d="M249.849 363.896L251.401 403.896H248.401L249.849 363.896Z" fill="black" fill-opacity="0.5"/>
<path d="M249.849 363.896L251.401 403.896H248.401L249.849 363.896Z" stroke="#F76A1B" mask="url(#path-26-outside-19_301_926)"/>
<path d="M249.849 363.896L251.401 403.896H248.401L249.849 363.896Z" stroke="black" stroke-opacity="0.5" mask="url(#path-26-outside-19_301_926)"/>
<mask id="path-27-outside-20_301_926" maskUnits="userSpaceOnUse" x="247.401" y="405.896" width="5" height="42" fill="black">
<rect fill="white" x="247.401" y="405.896" width="5" height="42"/>
<path d="M249.849 446.896L251.401 406.896H248.401L249.849 446.896Z"/>
</mask>
<path d="M249.849 446.896L251.401 406.896H248.401L249.849 446.896Z" fill="#F76A1B"/>
<path d="M249.849 446.896L251.401 406.896H248.401L249.849 446.896Z" fill="black" fill-opacity="0.5"/>
<path d="M249.849 446.896L251.401 406.896H248.401L249.849 446.896Z" stroke="#F76A1B" mask="url(#path-27-outside-20_301_926)"/>
<path d="M249.849 446.896L251.401 406.896H248.401L249.849 446.896Z" stroke="black" stroke-opacity="0.5" mask="url(#path-27-outside-20_301_926)"/>
<mask id="path-28-outside-21_301_926" maskUnits="userSpaceOnUse" x="250.401" y="402.792" width="42" height="5" fill="black">
<rect fill="white" x="250.401" y="402.792" width="42" height="5"/>
<path d="M291.401 405.344L251.401 403.792V406.792L291.401 405.344Z"/>
</mask>
<path d="M291.401 405.344L251.401 403.792V406.792L291.401 405.344Z" fill="#F76A1B"/>
<path d="M291.401 405.344L251.401 403.792V406.792L291.401 405.344Z" fill="black" fill-opacity="0.5"/>
<path d="M291.401 405.344L251.401 403.792V406.792L291.401 405.344Z" stroke="#F76A1B" mask="url(#path-28-outside-21_301_926)"/>
<path d="M291.401 405.344L251.401 403.792V406.792L291.401 405.344Z" stroke="black" stroke-opacity="0.5" mask="url(#path-28-outside-21_301_926)"/>
<mask id="path-29-outside-22_301_926" maskUnits="userSpaceOnUse" x="207.401" y="402.792" width="42" height="5" fill="black">
<rect fill="white" x="207.401" y="402.792" width="42" height="5"/>
<path d="M208.401 405.344L248.401 403.792V406.792L208.401 405.344Z"/>
</mask>
<path d="M208.401 405.344L248.401 403.792V406.792L208.401 405.344Z" fill="#F76A1B"/>
<path d="M208.401 405.344L248.401 403.792V406.792L208.401 405.344Z" fill="black" fill-opacity="0.5"/>
<path d="M208.401 405.344L248.401 403.792V406.792L208.401 405.344Z" stroke="#F76A1B" mask="url(#path-29-outside-22_301_926)"/>
<path d="M208.401 405.344L248.401 403.792V406.792L208.401 405.344Z" stroke="black" stroke-opacity="0.5" mask="url(#path-29-outside-22_301_926)"/>
<rect x="290.648" y="485.495" width="3" height="3" fill="#F76A1B"/>
<rect x="290.648" y="485.495" width="3" height="3" fill="black" fill-opacity="0.5"/>
<mask id="path-31-outside-23_301_926" maskUnits="userSpaceOnUse" x="289.648" y="444.495" width="5" height="42" fill="black">
<rect fill="white" x="289.648" y="444.495" width="5" height="42"/>
<path d="M292.096 445.495L293.648 485.495H290.648L292.096 445.495Z"/>
</mask>
<path d="M292.096 445.495L293.648 485.495H290.648L292.096 445.495Z" fill="#F76A1B"/>
<path d="M292.096 445.495L293.648 485.495H290.648L292.096 445.495Z" fill="black" fill-opacity="0.5"/>
<path d="M292.096 445.495L293.648 485.495H290.648L292.096 445.495Z" stroke="#F76A1B" mask="url(#path-31-outside-23_301_926)"/>
<path d="M292.096 445.495L293.648 485.495H290.648L292.096 445.495Z" stroke="black" stroke-opacity="0.5" mask="url(#path-31-outside-23_301_926)"/>
<mask id="path-32-outside-24_301_926" maskUnits="userSpaceOnUse" x="289.648" y="487.495" width="5" height="42" fill="black">
<rect fill="white" x="289.648" y="487.495" width="5" height="42"/>
<path d="M292.096 528.495L293.648 488.495H290.648L292.096 528.495Z"/>
</mask>
<path d="M292.096 528.495L293.648 488.495H290.648L292.096 528.495Z" fill="#F76A1B"/>
<path d="M292.096 528.495L293.648 488.495H290.648L292.096 528.495Z" fill="black" fill-opacity="0.5"/>
<path d="M292.096 528.495L293.648 488.495H290.648L292.096 528.495Z" stroke="#F76A1B" mask="url(#path-32-outside-24_301_926)"/>
<path d="M292.096 528.495L293.648 488.495H290.648L292.096 528.495Z" stroke="black" stroke-opacity="0.5" mask="url(#path-32-outside-24_301_926)"/>
<mask id="path-33-outside-25_301_926" maskUnits="userSpaceOnUse" x="292.648" y="484.39" width="42" height="5" fill="black">
<rect fill="white" x="292.648" y="484.39" width="42" height="5"/>
<path d="M333.648 486.942L293.648 485.39V488.39L333.648 486.942Z"/>
</mask>
<path d="M333.648 486.942L293.648 485.39V488.39L333.648 486.942Z" fill="#F76A1B"/>
<path d="M333.648 486.942L293.648 485.39V488.39L333.648 486.942Z" fill="black" fill-opacity="0.5"/>
<path d="M333.648 486.942L293.648 485.39V488.39L333.648 486.942Z" stroke="#F76A1B" mask="url(#path-33-outside-25_301_926)"/>
<path d="M333.648 486.942L293.648 485.39V488.39L333.648 486.942Z" stroke="black" stroke-opacity="0.5" mask="url(#path-33-outside-25_301_926)"/>
<mask id="path-34-outside-26_301_926" maskUnits="userSpaceOnUse" x="249.648" y="484.39" width="42" height="5" fill="black">
<rect fill="white" x="249.648" y="484.39" width="42" height="5"/>
<path d="M250.648 486.942L290.648 485.39V488.39L250.648 486.942Z"/>
</mask>
<path d="M250.648 486.942L290.648 485.39V488.39L250.648 486.942Z" fill="#F76A1B"/>
<path d="M250.648 486.942L290.648 485.39V488.39L250.648 486.942Z" fill="black" fill-opacity="0.5"/>
<path d="M250.648 486.942L290.648 485.39V488.39L250.648 486.942Z" stroke="#F76A1B" mask="url(#path-34-outside-26_301_926)"/>
<path d="M250.648 486.942L290.648 485.39V488.39L250.648 486.942Z" stroke="black" stroke-opacity="0.5" mask="url(#path-34-outside-26_301_926)"/>
<rect x="865.726" y="139.508" width="3" height="3" fill="#F76A1B"/>
<rect x="865.726" y="139.508" width="3" height="3" fill="black" fill-opacity="0.5"/>
<mask id="path-36-outside-27_301_926" maskUnits="userSpaceOnUse" x="864.726" y="98.5081" width="5" height="42" fill="black">
<rect fill="white" x="864.726" y="98.5081" width="5" height="42"/>
<path d="M867.173 99.5081L868.726 139.508H865.726L867.173 99.5081Z"/>
</mask>
<path d="M867.173 99.5081L868.726 139.508H865.726L867.173 99.5081Z" fill="#F76A1B"/>
<path d="M867.173 99.5081L868.726 139.508H865.726L867.173 99.5081Z" fill="black" fill-opacity="0.5"/>
<path d="M867.173 99.5081L868.726 139.508H865.726L867.173 99.5081Z" stroke="#F76A1B" mask="url(#path-36-outside-27_301_926)"/>
<path d="M867.173 99.5081L868.726 139.508H865.726L867.173 99.5081Z" stroke="black" stroke-opacity="0.5" mask="url(#path-36-outside-27_301_926)"/>
<mask id="path-37-outside-28_301_926" maskUnits="userSpaceOnUse" x="864.726" y="141.508" width="5" height="42" fill="black">
<rect fill="white" x="864.726" y="141.508" width="5" height="42"/>
<path d="M867.173 182.508L868.726 142.508H865.726L867.173 182.508Z"/>
</mask>
<path d="M867.173 182.508L868.726 142.508H865.726L867.173 182.508Z" fill="#F76A1B"/>
<path d="M867.173 182.508L868.726 142.508H865.726L867.173 182.508Z" fill="black" fill-opacity="0.5"/>
<path d="M867.173 182.508L868.726 142.508H865.726L867.173 182.508Z" stroke="#F76A1B" mask="url(#path-37-outside-28_301_926)"/>
<path d="M867.173 182.508L868.726 142.508H865.726L867.173 182.508Z" stroke="black" stroke-opacity="0.5" mask="url(#path-37-outside-28_301_926)"/>
<mask id="path-38-outside-29_301_926" maskUnits="userSpaceOnUse" x="867.726" y="138.404" width="42" height="5" fill="black">
<rect fill="white" x="867.726" y="138.404" width="42" height="5"/>
<path d="M908.726 140.956L868.726 139.404V142.404L908.726 140.956Z"/>
</mask>
<path d="M908.726 140.956L868.726 139.404V142.404L908.726 140.956Z" fill="#F76A1B"/>
<path d="M908.726 140.956L868.726 139.404V142.404L908.726 140.956Z" fill="black" fill-opacity="0.5"/>
<path d="M908.726 140.956L868.726 139.404V142.404L908.726 140.956Z" stroke="#F76A1B" mask="url(#path-38-outside-29_301_926)"/>
<path d="M908.726 140.956L868.726 139.404V142.404L908.726 140.956Z" stroke="black" stroke-opacity="0.5" mask="url(#path-38-outside-29_301_926)"/>
<mask id="path-39-outside-30_301_926" maskUnits="userSpaceOnUse" x="824.726" y="138.404" width="42" height="5" fill="black">
<rect fill="white" x="824.726" y="138.404" width="42" height="5"/>
<path d="M825.726 140.956L865.726 139.404V142.404L825.726 140.956Z"/>
</mask>
<path d="M825.726 140.956L865.726 139.404V142.404L825.726 140.956Z" fill="#F76A1B"/>
<path d="M825.726 140.956L865.726 139.404V142.404L825.726 140.956Z" fill="black" fill-opacity="0.5"/>
<path d="M825.726 140.956L865.726 139.404V142.404L825.726 140.956Z" stroke="#F76A1B" mask="url(#path-39-outside-30_301_926)"/>
<path d="M825.726 140.956L865.726 139.404V142.404L825.726 140.956Z" stroke="black" stroke-opacity="0.5" mask="url(#path-39-outside-30_301_926)"/>
<rect x="959.726" y="181.755" width="3" height="3" fill="#F76A1B"/>
<rect x="959.726" y="181.755" width="3" height="3" fill="black" fill-opacity="0.5"/>
<mask id="path-41-outside-31_301_926" maskUnits="userSpaceOnUse" x="958.726" y="140.755" width="5" height="42" fill="black">
<rect fill="white" x="958.726" y="140.755" width="5" height="42"/>
<path d="M961.173 141.755L962.726 181.755H959.726L961.173 141.755Z"/>
</mask>
<path d="M961.173 141.755L962.726 181.755H959.726L961.173 141.755Z" fill="#F76A1B"/>
<path d="M961.173 141.755L962.726 181.755H959.726L961.173 141.755Z" fill="black" fill-opacity="0.5"/>
<path d="M961.173 141.755L962.726 181.755H959.726L961.173 141.755Z" stroke="#F76A1B" mask="url(#path-41-outside-31_301_926)"/>
<path d="M961.173 141.755L962.726 181.755H959.726L961.173 141.755Z" stroke="black" stroke-opacity="0.5" mask="url(#path-41-outside-31_301_926)"/>
<mask id="path-42-outside-32_301_926" maskUnits="userSpaceOnUse" x="958.726" y="183.755" width="5" height="42" fill="black">
<rect fill="white" x="958.726" y="183.755" width="5" height="42"/>
<path d="M961.173 224.755L962.726 184.755H959.726L961.173 224.755Z"/>
</mask>
<path d="M961.173 224.755L962.726 184.755H959.726L961.173 224.755Z" fill="#F76A1B"/>
<path d="M961.173 224.755L962.726 184.755H959.726L961.173 224.755Z" fill="black" fill-opacity="0.5"/>
<path d="M961.173 224.755L962.726 184.755H959.726L961.173 224.755Z" stroke="#F76A1B" mask="url(#path-42-outside-32_301_926)"/>
<path d="M961.173 224.755L962.726 184.755H959.726L961.173 224.755Z" stroke="black" stroke-opacity="0.5" mask="url(#path-42-outside-32_301_926)"/>
<mask id="path-43-outside-33_301_926" maskUnits="userSpaceOnUse" x="961.726" y="180.65" width="42" height="5" fill="black">
<rect fill="white" x="961.726" y="180.65" width="42" height="5"/>
<path d="M1002.73 183.203L962.726 181.65V184.65L1002.73 183.203Z"/>
</mask>
<path d="M1002.73 183.203L962.726 181.65V184.65L1002.73 183.203Z" fill="#F76A1B"/>
<path d="M1002.73 183.203L962.726 181.65V184.65L1002.73 183.203Z" fill="black" fill-opacity="0.5"/>
<path d="M1002.73 183.203L962.726 181.65V184.65L1002.73 183.203Z" stroke="#F76A1B" mask="url(#path-43-outside-33_301_926)"/>
<path d="M1002.73 183.203L962.726 181.65V184.65L1002.73 183.203Z" stroke="black" stroke-opacity="0.5" mask="url(#path-43-outside-33_301_926)"/>
<mask id="path-44-outside-34_301_926" maskUnits="userSpaceOnUse" x="918.726" y="180.65" width="42" height="5" fill="black">
<rect fill="white" x="918.726" y="180.65" width="42" height="5"/>
<path d="M919.726 183.203L959.726 181.65V184.65L919.726 183.203Z"/>
</mask>
<path d="M919.726 183.203L959.726 181.65V184.65L919.726 183.203Z" fill="#F76A1B"/>
<path d="M919.726 183.203L959.726 181.65V184.65L919.726 183.203Z" fill="black" fill-opacity="0.5"/>
<path d="M919.726 183.203L959.726 181.65V184.65L919.726 183.203Z" stroke="#F76A1B" mask="url(#path-44-outside-34_301_926)"/>
<path d="M919.726 183.203L959.726 181.65V184.65L919.726 183.203Z" stroke="black" stroke-opacity="0.5" mask="url(#path-44-outside-34_301_926)"/>
<rect x="897.803" y="208.942" width="3" height="3" fill="#F76A1B"/>
<rect x="897.803" y="208.942" width="3" height="3" fill="black" fill-opacity="0.5"/>
<mask id="path-46-outside-35_301_926" maskUnits="userSpaceOnUse" x="896.803" y="167.942" width="5" height="42" fill="black">
<rect fill="white" x="896.803" y="167.942" width="5" height="42"/>
<path d="M899.251 168.942L900.803 208.942H897.803L899.251 168.942Z"/>
</mask>
<path d="M899.251 168.942L900.803 208.942H897.803L899.251 168.942Z" fill="#F76A1B"/>
<path d="M899.251 168.942L900.803 208.942H897.803L899.251 168.942Z" fill="black" fill-opacity="0.5"/>
<path d="M899.251 168.942L900.803 208.942H897.803L899.251 168.942Z" stroke="#F76A1B" mask="url(#path-46-outside-35_301_926)"/>
<path d="M899.251 168.942L900.803 208.942H897.803L899.251 168.942Z" stroke="black" stroke-opacity="0.5" mask="url(#path-46-outside-35_301_926)"/>
<mask id="path-47-outside-36_301_926" maskUnits="userSpaceOnUse" x="896.803" y="210.942" width="5" height="42" fill="black">
<rect fill="white" x="896.803" y="210.942" width="5" height="42"/>
<path d="M899.251 251.942L900.803 211.942H897.803L899.251 251.942Z"/>
</mask>
<path d="M899.251 251.942L900.803 211.942H897.803L899.251 251.942Z" fill="#F76A1B"/>
<path d="M899.251 251.942L900.803 211.942H897.803L899.251 251.942Z" fill="black" fill-opacity="0.5"/>
<path d="M899.251 251.942L900.803 211.942H897.803L899.251 251.942Z" stroke="#F76A1B" mask="url(#path-47-outside-36_301_926)"/>
<path d="M899.251 251.942L900.803 211.942H897.803L899.251 251.942Z" stroke="black" stroke-opacity="0.5" mask="url(#path-47-outside-36_301_926)"/>
<mask id="path-48-outside-37_301_926" maskUnits="userSpaceOnUse" x="899.803" y="207.838" width="42" height="5" fill="black">
<rect fill="white" x="899.803" y="207.838" width="42" height="5"/>
<path d="M940.803 210.39L900.803 208.838V211.838L940.803 210.39Z"/>
</mask>
<path d="M940.803 210.39L900.803 208.838V211.838L940.803 210.39Z" fill="#F76A1B"/>
<path d="M940.803 210.39L900.803 208.838V211.838L940.803 210.39Z" fill="black" fill-opacity="0.5"/>
<path d="M940.803 210.39L900.803 208.838V211.838L940.803 210.39Z" stroke="#F76A1B" mask="url(#path-48-outside-37_301_926)"/>
<path d="M940.803 210.39L900.803 208.838V211.838L940.803 210.39Z" stroke="black" stroke-opacity="0.5" mask="url(#path-48-outside-37_301_926)"/>
<mask id="path-49-outside-38_301_926" maskUnits="userSpaceOnUse" x="856.803" y="207.838" width="42" height="5" fill="black">
<rect fill="white" x="856.803" y="207.838" width="42" height="5"/>
<path d="M857.803 210.39L897.803 208.838V211.838L857.803 210.39Z"/>
</mask>
<path d="M857.803 210.39L897.803 208.838V211.838L857.803 210.39Z" fill="#F76A1B"/>
<path d="M857.803 210.39L897.803 208.838V211.838L857.803 210.39Z" fill="black" fill-opacity="0.5"/>
<path d="M857.803 210.39L897.803 208.838V211.838L857.803 210.39Z" stroke="#F76A1B" mask="url(#path-49-outside-38_301_926)"/>
<path d="M857.803 210.39L897.803 208.838V211.838L857.803 210.39Z" stroke="black" stroke-opacity="0.5" mask="url(#path-49-outside-38_301_926)"/>
<rect x="1083.73" y="420.896" width="3" height="3" fill="#F76A1B"/>
<rect x="1083.73" y="420.896" width="3" height="3" fill="black" fill-opacity="0.5"/>
<mask id="path-51-outside-39_301_926" maskUnits="userSpaceOnUse" x="1082.73" y="379.896" width="5" height="42" fill="black">
<rect fill="white" x="1082.73" y="379.896" width="5" height="42"/>
<path d="M1085.17 380.896L1086.73 420.896H1083.73L1085.17 380.896Z"/>
</mask>
<path d="M1085.17 380.896L1086.73 420.896H1083.73L1085.17 380.896Z" fill="#F76A1B"/>
<path d="M1085.17 380.896L1086.73 420.896H1083.73L1085.17 380.896Z" fill="black" fill-opacity="0.5"/>
<path d="M1085.17 380.896L1086.73 420.896H1083.73L1085.17 380.896Z" stroke="#F76A1B" mask="url(#path-51-outside-39_301_926)"/>
<path d="M1085.17 380.896L1086.73 420.896H1083.73L1085.17 380.896Z" stroke="black" stroke-opacity="0.5" mask="url(#path-51-outside-39_301_926)"/>
<mask id="path-52-outside-40_301_926" maskUnits="userSpaceOnUse" x="1082.73" y="422.896" width="5" height="42" fill="black">
<rect fill="white" x="1082.73" y="422.896" width="5" height="42"/>
<path d="M1085.17 463.896L1086.73 423.896H1083.73L1085.17 463.896Z"/>
</mask>
<path d="M1085.17 463.896L1086.73 423.896H1083.73L1085.17 463.896Z" fill="#F76A1B"/>
<path d="M1085.17 463.896L1086.73 423.896H1083.73L1085.17 463.896Z" fill="black" fill-opacity="0.5"/>
<path d="M1085.17 463.896L1086.73 423.896H1083.73L1085.17 463.896Z" stroke="#F76A1B" mask="url(#path-52-outside-40_301_926)"/>
<path d="M1085.17 463.896L1086.73 423.896H1083.73L1085.17 463.896Z" stroke="black" stroke-opacity="0.5" mask="url(#path-52-outside-40_301_926)"/>
<mask id="path-53-outside-41_301_926" maskUnits="userSpaceOnUse" x="1085.73" y="419.792" width="42" height="5" fill="black">
<rect fill="white" x="1085.73" y="419.792" width="42" height="5"/>
<path d="M1126.73 422.344L1086.73 420.792V423.792L1126.73 422.344Z"/>
</mask>
<path d="M1126.73 422.344L1086.73 420.792V423.792L1126.73 422.344Z" fill="#F76A1B"/>
<path d="M1126.73 422.344L1086.73 420.792V423.792L1126.73 422.344Z" fill="black" fill-opacity="0.5"/>
<path d="M1126.73 422.344L1086.73 420.792V423.792L1126.73 422.344Z" stroke="#F76A1B" mask="url(#path-53-outside-41_301_926)"/>
<path d="M1126.73 422.344L1086.73 420.792V423.792L1126.73 422.344Z" stroke="black" stroke-opacity="0.5" mask="url(#path-53-outside-41_301_926)"/>
<mask id="path-54-outside-42_301_926" maskUnits="userSpaceOnUse" x="1042.73" y="419.792" width="42" height="5" fill="black">
<rect fill="white" x="1042.73" y="419.792" width="42" height="5"/>
<path d="M1043.73 422.344L1083.73 420.792V423.792L1043.73 422.344Z"/>
</mask>
<path d="M1043.73 422.344L1083.73 420.792V423.792L1043.73 422.344Z" fill="#F76A1B"/>
<path d="M1043.73 422.344L1083.73 420.792V423.792L1043.73 422.344Z" fill="black" fill-opacity="0.5"/>
<path d="M1043.73 422.344L1083.73 420.792V423.792L1043.73 422.344Z" stroke="#F76A1B" mask="url(#path-54-outside-42_301_926)"/>
<path d="M1043.73 422.344L1083.73 420.792V423.792L1043.73 422.344Z" stroke="black" stroke-opacity="0.5" mask="url(#path-54-outside-42_301_926)"/>
<rect x="1011.73" y="451.896" width="3" height="3" fill="#F76A1B"/>
<rect x="1011.73" y="451.896" width="3" height="3" fill="black" fill-opacity="0.5"/>
<mask id="path-56-outside-43_301_926" maskUnits="userSpaceOnUse" x="1010.73" y="410.896" width="5" height="42" fill="black">
<rect fill="white" x="1010.73" y="410.896" width="5" height="42"/>
<path d="M1013.17 411.896L1014.73 451.896H1011.73L1013.17 411.896Z"/>
</mask>
<path d="M1013.17 411.896L1014.73 451.896H1011.73L1013.17 411.896Z" fill="#F76A1B"/>
<path d="M1013.17 411.896L1014.73 451.896H1011.73L1013.17 411.896Z" fill="black" fill-opacity="0.5"/>
<path d="M1013.17 411.896L1014.73 451.896H1011.73L1013.17 411.896Z" stroke="#F76A1B" mask="url(#path-56-outside-43_301_926)"/>
<path d="M1013.17 411.896L1014.73 451.896H1011.73L1013.17 411.896Z" stroke="black" stroke-opacity="0.5" mask="url(#path-56-outside-43_301_926)"/>
<mask id="path-57-outside-44_301_926" maskUnits="userSpaceOnUse" x="1010.73" y="453.896" width="5" height="42" fill="black">
<rect fill="white" x="1010.73" y="453.896" width="5" height="42"/>
<path d="M1013.17 494.896L1014.73 454.896H1011.73L1013.17 494.896Z"/>
</mask>
<path d="M1013.17 494.896L1014.73 454.896H1011.73L1013.17 494.896Z" fill="#F76A1B"/>
<path d="M1013.17 494.896L1014.73 454.896H1011.73L1013.17 494.896Z" fill="black" fill-opacity="0.5"/>
<path d="M1013.17 494.896L1014.73 454.896H1011.73L1013.17 494.896Z" stroke="#F76A1B" mask="url(#path-57-outside-44_301_926)"/>
<path d="M1013.17 494.896L1014.73 454.896H1011.73L1013.17 494.896Z" stroke="black" stroke-opacity="0.5" mask="url(#path-57-outside-44_301_926)"/>
<mask id="path-58-outside-45_301_926" maskUnits="userSpaceOnUse" x="1013.73" y="450.792" width="42" height="5" fill="black">
<rect fill="white" x="1013.73" y="450.792" width="42" height="5"/>
<path d="M1054.73 453.344L1014.73 451.792V454.792L1054.73 453.344Z"/>
</mask>
<path d="M1054.73 453.344L1014.73 451.792V454.792L1054.73 453.344Z" fill="#F76A1B"/>
<path d="M1054.73 453.344L1014.73 451.792V454.792L1054.73 453.344Z" fill="black" fill-opacity="0.5"/>
<path d="M1054.73 453.344L1014.73 451.792V454.792L1054.73 453.344Z" stroke="#F76A1B" mask="url(#path-58-outside-45_301_926)"/>
<path d="M1054.73 453.344L1014.73 451.792V454.792L1054.73 453.344Z" stroke="black" stroke-opacity="0.5" mask="url(#path-58-outside-45_301_926)"/>
<mask id="path-59-outside-46_301_926" maskUnits="userSpaceOnUse" x="970.726" y="450.792" width="42" height="5" fill="black">
<rect fill="white" x="970.726" y="450.792" width="42" height="5"/>
<path d="M971.726 453.344L1011.73 451.792V454.792L971.726 453.344Z"/>
</mask>
<path d="M971.726 453.344L1011.73 451.792V454.792L971.726 453.344Z" fill="#F76A1B"/>
<path d="M971.726 453.344L1011.73 451.792V454.792L971.726 453.344Z" fill="black" fill-opacity="0.5"/>
<path d="M971.726 453.344L1011.73 451.792V454.792L971.726 453.344Z" stroke="#F76A1B" mask="url(#path-59-outside-46_301_926)"/>
<path d="M971.726 453.344L1011.73 451.792V454.792L971.726 453.344Z" stroke="black" stroke-opacity="0.5" mask="url(#path-59-outside-46_301_926)"/>
<rect x="1062.6" y="502.495" width="3" height="3" fill="#F76A1B"/>
<rect x="1062.6" y="502.495" width="3" height="3" fill="black" fill-opacity="0.5"/>
<mask id="path-61-outside-47_301_926" maskUnits="userSpaceOnUse" x="1061.6" y="461.495" width="5" height="42" fill="black">
<rect fill="white" x="1061.6" y="461.495" width="5" height="42"/>
<path d="M1064.05 462.495L1065.6 502.495H1062.6L1064.05 462.495Z"/>
</mask>
<path d="M1064.05 462.495L1065.6 502.495H1062.6L1064.05 462.495Z" fill="#F76A1B"/>
<path d="M1064.05 462.495L1065.6 502.495H1062.6L1064.05 462.495Z" fill="black" fill-opacity="0.5"/>
<path d="M1064.05 462.495L1065.6 502.495H1062.6L1064.05 462.495Z" stroke="#F76A1B" mask="url(#path-61-outside-47_301_926)"/>
<path d="M1064.05 462.495L1065.6 502.495H1062.6L1064.05 462.495Z" stroke="black" stroke-opacity="0.5" mask="url(#path-61-outside-47_301_926)"/>
<mask id="path-62-outside-48_301_926" maskUnits="userSpaceOnUse" x="1061.6" y="504.495" width="5" height="42" fill="black">
<rect fill="white" x="1061.6" y="504.495" width="5" height="42"/>
<path d="M1064.05 545.495L1065.6 505.495H1062.6L1064.05 545.495Z"/>
</mask>
<path d="M1064.05 545.495L1065.6 505.495H1062.6L1064.05 545.495Z" fill="#F76A1B"/>
<path d="M1064.05 545.495L1065.6 505.495H1062.6L1064.05 545.495Z" fill="black" fill-opacity="0.5"/>
<path d="M1064.05 545.495L1065.6 505.495H1062.6L1064.05 545.495Z" stroke="#F76A1B" mask="url(#path-62-outside-48_301_926)"/>
<path d="M1064.05 545.495L1065.6 505.495H1062.6L1064.05 545.495Z" stroke="black" stroke-opacity="0.5" mask="url(#path-62-outside-48_301_926)"/>
<mask id="path-63-outside-49_301_926" maskUnits="userSpaceOnUse" x="1064.6" y="501.39" width="42" height="5" fill="black">
<rect fill="white" x="1064.6" y="501.39" width="42" height="5"/>
<path d="M1105.6 503.942L1065.6 502.39V505.39L1105.6 503.942Z"/>
</mask>
<path d="M1105.6 503.942L1065.6 502.39V505.39L1105.6 503.942Z" fill="#F76A1B"/>
<path d="M1105.6 503.942L1065.6 502.39V505.39L1105.6 503.942Z" fill="black" fill-opacity="0.5"/>
<path d="M1105.6 503.942L1065.6 502.39V505.39L1105.6 503.942Z" stroke="#F76A1B" mask="url(#path-63-outside-49_301_926)"/>
<path d="M1105.6 503.942L1065.6 502.39V505.39L1105.6 503.942Z" stroke="black" stroke-opacity="0.5" mask="url(#path-63-outside-49_301_926)"/>
<mask id="path-64-outside-50_301_926" maskUnits="userSpaceOnUse" x="1021.6" y="501.39" width="42" height="5" fill="black">
<rect fill="white" x="1021.6" y="501.39" width="42" height="5"/>
<path d="M1022.6 503.942L1062.6 502.39V505.39L1022.6 503.942Z"/>
</mask>
<path d="M1022.6 503.942L1062.6 502.39V505.39L1022.6 503.942Z" fill="#F76A1B"/>
<path d="M1022.6 503.942L1062.6 502.39V505.39L1022.6 503.942Z" fill="black" fill-opacity="0.5"/>
<path d="M1022.6 503.942L1062.6 502.39V505.39L1022.6 503.942Z" stroke="#F76A1B" mask="url(#path-64-outside-50_301_926)"/>
<path d="M1022.6 503.942L1062.6 502.39V505.39L1022.6 503.942Z" stroke="black" stroke-opacity="0.5" mask="url(#path-64-outside-50_301_926)"/>
</svg>
