<svg width="1212" height="590" viewBox="0 0 1212 590" fill="none" xmlns="http://www.w3.org/2000/svg">
<g clip-path="url(#clip0_301_813)">
<path d="M341 398C364.196 398 383 379.196 383 356C383 332.804 364.196 314 341 314C317.804 314 299 332.804 299 356C299 379.196 317.804 398 341 398Z" fill="#FFE870"/>
<path d="M341 398C364.196 398 383 379.196 383 356C383 332.804 364.196 314 341 314C317.804 314 299 332.804 299 356C299 379.196 317.804 398 341 398Z" fill="black" fill-opacity="0.5"/>
<path d="M730.47 214.529L873.53 342.528" stroke="#4C8CBF" stroke-width="12" stroke-linecap="round"/>
<path d="M730.47 214.529L873.53 342.528" stroke="black" stroke-opacity="0.5" stroke-width="12" stroke-linecap="round"/>
<path d="M315.47 49.5293L458.53 177.528" stroke="#FFE871" stroke-width="12" stroke-linecap="round"/>
<path d="M315.47 49.5293L458.53 177.528" stroke="black" stroke-opacity="0.5" stroke-width="12" stroke-linecap="round"/>
<path d="M328.47 117.529L471.53 245.528" stroke="#FFE871" stroke-width="12" stroke-linecap="round"/>
<path d="M328.47 117.529L471.53 245.528" stroke="black" stroke-opacity="0.5" stroke-width="12" stroke-linecap="round"/>
<path d="M680.5 224C729.377 224 769 184.377 769 135.5C769 86.6228 729.377 47 680.5 47C631.623 47 592 86.6228 592 135.5C592 184.377 631.623 224 680.5 224Z" stroke="#FFE870" stroke-width="12"/>
<path d="M680.5 224C729.377 224 769 184.377 769 135.5C769 86.6228 729.377 47 680.5 47C631.623 47 592 86.6228 592 135.5C592 184.377 631.623 224 680.5 224Z" stroke="black" stroke-opacity="0.5" stroke-width="12"/>
<path d="M681 589C752.245 589 810 531.245 810 460C810 388.755 752.245 331 681 331C609.755 331 552 388.755 552 460C552 531.245 609.755 589 681 589Z" stroke="#FFE870" stroke-width="12"/>
<path d="M681 589C752.245 589 810 531.245 810 460C810 388.755 752.245 331 681 331C609.755 331 552 388.755 552 460C552 531.245 609.755 589 681 589Z" stroke="black" stroke-opacity="0.5" stroke-width="12"/>
<path d="M328 454C372.183 454 408 418.183 408 374C408 329.817 372.183 294 328 294C283.817 294 248 329.817 248 374C248 418.183 283.817 454 328 454Z" stroke="#4C8CBF" stroke-width="12"/>
<path d="M328 454C372.183 454 408 418.183 408 374C408 329.817 372.183 294 328 294C283.817 294 248 329.817 248 374C248 418.183 283.817 454 328 454Z" stroke="black" stroke-opacity="0.5" stroke-width="12"/>
<path d="M88.5 149C129.645 149 163 115.645 163 74.5C163 33.3548 129.645 0 88.5 0C47.3548 0 14 33.3548 14 74.5C14 115.645 47.3548 149 88.5 149Z" stroke="#4C8CBF" stroke-width="12"/>
<path d="M88.5 149C129.645 149 163 115.645 163 74.5C163 33.3548 129.645 0 88.5 0C47.3548 0 14 33.3548 14 74.5C14 115.645 47.3548 149 88.5 149Z" stroke="black" stroke-opacity="0.5" stroke-width="12"/>
<path d="M981.5 160C1019.33 160 1050 129.332 1050 91.5C1050 53.6685 1019.33 23 981.5 23C943.668 23 913 53.6685 913 91.5C913 129.332 943.668 160 981.5 160Z" stroke="#4C8CBF" stroke-width="12"/>
<path d="M981.5 160C1019.33 160 1050 129.332 1050 91.5C1050 53.6685 1019.33 23 981.5 23C943.668 23 913 53.6685 913 91.5C913 129.332 943.668 160 981.5 160Z" stroke="black" stroke-opacity="0.5" stroke-width="12"/>
<path d="M723.47 151.529L866.53 279.528" stroke="#4C8CBF" stroke-width="12" stroke-linecap="round"/>
<path d="M723.47 151.529L866.53 279.528" stroke="black" stroke-opacity="0.5" stroke-width="12" stroke-linecap="round"/>
<path d="M1068.47 313.529L1211.53 441.528" stroke="#4C8CBF" stroke-width="12" stroke-linecap="round"/>
<path d="M1068.47 313.529L1211.53 441.528" stroke="black" stroke-opacity="0.5" stroke-width="12" stroke-linecap="round"/>
<path d="M192 335.5C192 370.018 164.018 398 129.5 398C94.982 398 67 370.018 67 335.5C67 300.982 94.982 273 129.5 273C164.018 273 192 300.982 192 335.5Z" fill="#FFE870"/>
<path d="M192 335.5C192 370.018 164.018 398 129.5 398C94.982 398 67 370.018 67 335.5C67 300.982 94.982 273 129.5 273C164.018 273 192 300.982 192 335.5Z" fill="black" fill-opacity="0.5"/>
<path d="M66 479C66 497.225 51.225 512 33 512C14.775 512 0 497.225 0 479C0 460.775 14.775 446 33 446C51.225 446 66 460.775 66 479Z" fill="#4C8CBF"/>
<path d="M66 479C66 497.225 51.225 512 33 512C14.775 512 0 497.225 0 479C0 460.775 14.775 446 33 446C51.225 446 66 460.775 66 479Z" fill="black" fill-opacity="0.5"/>
<path d="M956 505C956 520.464 943.46 533 928 533V557C956.72 557 980 533.719 980 505H956ZM928 533C912.54 533 900 520.464 900 505H876C876 533.719 899.28 557 928 557V533ZM900 505C900 489.536 912.54 477 928 477V453C899.28 453 876 476.281 876 505H900ZM928 477C943.46 477 956 489.536 956 505H980C980 476.281 956.72 453 928 453V477Z" fill="#FFE871"/>
<path d="M956 505C956 520.464 943.46 533 928 533V557C956.72 557 980 533.719 980 505H956ZM928 533C912.54 533 900 520.464 900 505H876C876 533.719 899.28 557 928 557V533ZM900 505C900 489.536 912.54 477 928 477V453C899.28 453 876 476.281 876 505H900ZM928 477C943.46 477 956 489.536 956 505H980C980 476.281 956.72 453 928 453V477Z" fill="black" fill-opacity="0.5"/>
<path d="M991 386.5C991 399.479 980.48 410 967.5 410V434C993.73 434 1015 412.734 1015 386.5H991ZM967.5 410C954.52 410 944 399.479 944 386.5H920C920 412.734 941.27 434 967.5 434V410ZM944 386.5C944 373.521 954.52 363 967.5 363V339C941.27 339 920 360.266 920 386.5H944ZM967.5 363C980.48 363 991 373.521 991 386.5H1015C1015 360.266 993.73 339 967.5 339V363Z" fill="#FFE871"/>
<path d="M991 386.5C991 399.479 980.48 410 967.5 410V434C993.73 434 1015 412.734 1015 386.5H991ZM967.5 410C954.52 410 944 399.479 944 386.5H920C920 412.734 941.27 434 967.5 434V410ZM944 386.5C944 373.521 954.52 363 967.5 363V339C941.27 339 920 360.266 920 386.5H944ZM967.5 363C980.48 363 991 373.521 991 386.5H1015C1015 360.266 993.73 339 967.5 339V363Z" fill="black" fill-opacity="0.5"/>
<path d="M1001 79.5C1001 90.27 992.27 99 981.5 99C970.73 99 962 90.27 962 79.5C962 68.7304 970.73 60 981.5 60C992.27 60 1001 68.7304 1001 79.5Z" fill="#FFE870"/>
<path d="M1001 79.5C1001 90.27 992.27 99 981.5 99C970.73 99 962 90.27 962 79.5C962 68.7304 970.73 60 981.5 60C992.27 60 1001 68.7304 1001 79.5Z" fill="black" fill-opacity="0.5"/>
<path d="M867 60.5C867 71.2696 858.27 80 847.5 80C836.73 80 828 71.2696 828 60.5C828 49.7304 836.73 41 847.5 41C858.27 41 867 49.7304 867 60.5Z" fill="#FFE870"/>
<path d="M867 60.5C867 71.2696 858.27 80 847.5 80C836.73 80 828 71.2696 828 60.5C828 49.7304 836.73 41 847.5 41C858.27 41 867 49.7304 867 60.5Z" fill="black" fill-opacity="0.5"/>
<path d="M459 528C473.359 528 485 516.359 485 502C485 487.641 473.359 476 459 476C444.641 476 433 487.641 433 502C433 516.359 444.641 528 459 528Z" fill="#FFE870"/>
<path d="M459 528C473.359 528 485 516.359 485 502C485 487.641 473.359 476 459 476C444.641 476 433 487.641 433 502C433 516.359 444.641 528 459 528Z" fill="black" fill-opacity="0.5"/>
<path d="M689 549C720.48 549 746 523.48 746 492C746 460.52 720.48 435 689 435C657.52 435 632 460.52 632 492C632 523.48 657.52 549 689 549Z" fill="#4C8CBF"/>
<path d="M689 549C720.48 549 746 523.48 746 492C746 460.52 720.48 435 689 435C657.52 435 632 460.52 632 492C632 523.48 657.52 549 689 549Z" fill="black" fill-opacity="0.5"/>
<path fill-rule="evenodd" clip-rule="evenodd" d="M645.035 178.359C618.375 174.414 591.945 174.452 565.765 178.472C563.265 172.441 559.545 164.86 556.405 159.224C531.055 163.621 506.795 171.37 484.145 182.023C438.445 251.235 426.055 318.729 432.255 385.263C462.565 407.949 491.935 421.73 520.815 430.748C527.945 420.913 534.295 410.457 539.775 399.439C529.345 395.465 519.355 390.562 509.905 384.869C512.415 383.009 514.865 381.065 517.235 379.064C528.215 384.213 539.385 388.38 550.655 391.565C562.755 394.985 626.395 240.978 645.035 178.359ZM516.155 308.471C516.155 328.169 530.335 344.345 547.625 344.345C565.215 344.345 579.115 328.169 579.085 308.471C579.395 288.744 565.215 272.568 547.625 272.568C530.035 272.568 516.155 288.772 516.155 308.471Z" fill="url(#paint0_linear_301_813)"/>
<path fill-rule="evenodd" clip-rule="evenodd" d="M575.595 397.586C615.965 404.018 655.825 397.319 694.295 379.064C696.695 381.065 699.145 383.009 701.615 384.869C692.145 390.59 682.125 395.493 671.695 399.467C677.175 410.457 683.505 420.941 690.665 430.776C719.565 421.758 748.965 407.978 779.275 385.263C786.545 308.132 766.865 241.259 727.245 181.966C709.445 173.619 690.685 167.064 671.175 162.505C656.485 204.565 624.395 279.258 600.805 334.148C588.355 363.117 570.765 396.817 575.595 397.586ZM632.435 308.471C632.435 328.169 646.615 344.345 663.905 344.345C681.495 344.345 695.375 328.169 695.375 308.471C695.675 288.744 681.495 272.568 663.905 272.568C646.315 272.568 632.435 288.772 632.435 308.471Z" fill="url(#paint1_linear_301_813)"/>
</g>
<defs>
<linearGradient id="paint0_linear_301_813" x1="721.925" y1="384.008" x2="494.125" y2="290.475" gradientUnits="userSpaceOnUse">
<stop stop-color="#FFD43B"/>
<stop offset="0.53125" stop-color="#FFE871"/>
<stop offset="0.589043" stop-color="#306998"/>
<stop offset="1" stop-color="#4C8CBF"/>
</linearGradient>
<linearGradient id="paint1_linear_301_813" x1="721.925" y1="384.008" x2="494.125" y2="290.475" gradientUnits="userSpaceOnUse">
<stop stop-color="#FFD43B"/>
<stop offset="0.53125" stop-color="#FFE871"/>
<stop offset="0.589043" stop-color="#306998"/>
<stop offset="1" stop-color="#4C8CBF"/>
</linearGradient>
<clipPath id="clip0_301_813">
<rect width="1211.53" height="590" fill="white"/>
</clipPath>
</defs>
</svg>
